<mxfile host="Electron" modified="2023-11-08T14:13:07.254Z" agent="Mozilla/5.0 (Windows NT 10.0; Win64; x64) AppleWebKit/537.36 (KHTML, like Gecko) draw.io/21.8.2 Chrome/114.0.5735.289 Electron/25.8.1 Safari/537.36" etag="7J7B1koGi1ohyWylOLZL" version="21.8.2" type="device">
  <diagram name="Seite-1" id="92KKvcDDfoqeAb-YSJfD">
    <mxGraphModel dx="1816" dy="665" grid="1" gridSize="2" guides="1" tooltips="1" connect="1" arrows="1" fold="1" page="1" pageScale="1" pageWidth="827" pageHeight="1169" math="1" shadow="0">
      <root>
        <mxCell id="0" />
        <mxCell id="1" parent="0" />
        <mxCell id="jEoDmrueGU1iYw3OgaAT-1" value="Leg Control Unit" style="rounded=1;whiteSpace=wrap;html=1;verticalAlign=top;labelPosition=center;verticalLabelPosition=bottom;align=center;fontStyle=1;fillColor=#CCFFFF;strokeColor=#000000;fontColor=none;arcSize=7;noLabel=1;" parent="1" vertex="1">
          <mxGeometry x="-72" y="246" width="716" height="452" as="geometry" />
        </mxCell>
        <mxCell id="jEoDmrueGU1iYw3OgaAT-2" value="" style="shape=image;verticalLabelPosition=bottom;labelBackgroundColor=default;verticalAlign=top;aspect=fixed;imageAspect=0;image=data:image/png,iVBORw0KGgoAAAANSUhEUgAAB2sAAAOtCAYAAACv3Y67AAAAAXNSR0IArs4c6QAAAARnQU1BAACxjwv8YQUAAAAJcEhZcwAADsMAAA7DAcdvqGQAAMctSURBVHhe7P0LtG5XWRj870MSEyDcQqD4h6+0VhiiIIN21LaGyAmkYBAVCXihVPiqUgRbWloUimgU+cCqtKioA6xSpFCLiTdKBAk5KdG2fm0dCH5YaK1abs1NLgkmknD++93n2ck+c6137/eyLvPy+40R17OTg5Bz3neuOZ/5zGceO7lrBwAAAAAAAIBJ3S2eAAAAAAAAAEzIZi0AAAAAAADADGzWAgAAAAAAAMxg8jtr//Jf/ss7f/RHfxQ/AQAAAAAAALRp8s3aY8eO7Uz8Xwmz8FmnJT7vtMTnnZb4vNMKn3Va4vNOS3zeaYnPOy3xeac22iADAAAAAAAAzMBmLQAAAAAAAMAMbNYCAAAAAAAAzMBmLQAAAAAAAMAMbNYCAAAAAAAAzMBmLQAAAAAAAMAMbNYCAAAAAAAAzMBmLQAAAAAAAMAMbNYCAAAAAAAAzMBmLQAAAAAAAMAMbNYCAAAAAAAAzMBmLQAAAAAAAMAMbNYCAAAAAAAAzMBmLQAAAAAAAMAMbNYCAAAAAAAAzMBmLQAAAAAAAMAMbNbCSB71qEdFBPXzeaclPu+0xOedVvis0xKfd1ri805LfN5pic87tTnjsl0RT+IHfuAHdib+r4RZ/IW/8Bd2HvGIR8RPUDefd1ri805LfN5phc86LfF5pyU+77TE552W+LxTGydrAQAAAAAAAGZgsxYAAAAAAABgBjZrAQAAAAAAAGZgsxYAAAAAAABgBjZrAQAAAAAAAGZgsxYAAAAAAABgBjZrAQAAAAAAAGZgsxYAAAAAAABgBjZrAQAAAAAAAGZgsxYAAAAAAABgBjZrAQAAAAAAAGZgsxYAAAAAAABgBjZrAQAAAAAAAGZgsxYAAAAAAABgBjZrAQAAAAAAAGZgsxYAAAAAAABgBjZrAQAAAAAAAGZgsxYAAAAAAABgBjZrAQAAAAAAAGZgsxYAAAAAAABgBjZrAQAAAAAAAGZgsxYAAAAAAABgBjZrAQAAAAAAAGZgsxYAAAAAAABgBjZrAQAAAAAAAGZgsxYAAAAAAABgBjZrAQAAAAAAAGZgsxYAAAAAAABgBjZrAQAAAAAAAGZgsxYAAAAAAABgBjZrAQAAAAAAAGZgsxYAAAAAAABgBjZrAQAAAAAAAGZgsxYAAAAAAABgBjZrAQAAAAAAAGZgsxYAAAAAAABgBjZrAQAAAAAAAGZgsxYAAAAAAABgBjZrAQAAAAAAAGZgsxYAAAAAAABgBjZrAQAAAAAAAGZgsxYAAAAAAABgBjZrAQAAAAAAAGZgsxYAAAAAAABgBjZrAQAAAAAAAGZgsxYAAAAAAABgBjZrAQAAAAAAAGZgsxYAAAAAAABgBjZrAQAAAAAAAGZgsxYAAAAAAABgBjZrAQAAAAAAAGZgsxYAAAAAAABgBjZrAQAAAAAAAGZgsxYAAAAAAABgBjZrAQAAAAAAAGZgsxYAAAAAAABgBjZrAQAAAAAAAGZgsxYAAAAAAABgBjZrAQAAAAAAAGZgsxYAAAAAAABgBjZrAQAAAAAAAGZgsxYAAAAAAABgBjZrAQAAAAAAAGZgsxYAAAAAAABgBjZrAQAAAAAAAGZgsxYAAAAAAABgBjZrAQAAAAAAAGZgsxYAAAAAAABgBks3a++4446dRzziETvHjh3befrTn75z8uTJ+Cd3WfZrbr755p3zzjvv0P8sAAAAAAAAQMuWbta++tWv3vmpn/qpnc9//vN7P3/sYx/bex7U92sWG7hPfvKTd/7kT/5kb5P2MY95TO9/FgAAAAAAAKBlvZu1iw3XN7/5zTsPf/jD907HvuAFL9h54xvfGP/0lGW/5hOf+MTOk570pJ1zzz1379e97GUv23nwgx+8FzOME5/f2Tn2e8lf1+3sXLX79685tW8OQIEe8ef947uxHaBcizF8MZanY/vXfM74DlCy196RjO0xvr/H2A5QrL25+63J2L7461PxCwBGcuxkT4/ixUbsRRddtPOOd7xjb9P16quv3nnd616387a3vW1vY/awX/MjP/IjOy9+8Yt3fv/3f3/nD/7gD3YuvfTS0/5z+89tPepRj9q57LLL4qd2XPrFT4toua+4/oad7/nUf4ifmMvi+7AoYoAW+Lxv59Iv3B3b7xk/LPO53fH9k8b3HPi80xKf98398H2+aud3HnB+/LTcA//0szs/feNvxE/MxWedlvi8b+cfnffEnf993qkDCoe5/H9cERFz8nmnJT7vm9ubu993d+5+VvyNZT63O77/sfE9Bz7v5G6xf/n+978/fjra4Ju13/7t377zj//xP975wAc+sHO3u91t5xnPeMbel2bxaxcW//me/0qOsKjo2fnQqXglD9rZOfnAiJnFFVdcsfO0px29uQ418HnfzKJi8/gH4ocVnXjkzs7jll5iwBR83mmJz/tmfmV3fP+Gdcb33bn7Vefv7Dze+D4bn3Va4vO+mb25+w27wSdO/bySh+/snDwnYmbh805LfN43s3befdfJL4+A2fi8U5ul6YDrr79+51Ofuut8/+Lu2fRUbN+vWZx4/bIv+7K9jdrFr1/8vd/+7d+OX8EmFm101n1hLBYPe/85ALK0yUbtwuI/o7UaQL4WyZ61NmoXdufuT9j9z2iLDJCvvbn7Ohu1Cx/a2Xni5yIGIDt78+918+679lojLzZ5AQbSu1l7xhln7DzrWc/a+dCHPrR3CnZxYvY5z3lO/NNTlv2aBz3oQTvXXXfdzi233LL393/3d3935yu/8ivjP8W69jZcexYDi5NViwqe/b8WP3fYsAXIVu9G7aLyPh3bH3TqHx0koQ+Qpx+9Y/f/9CV7VhzfNyniAWB8y3IrB8f2xV+L8T71mx/c2fkHt8cPAGRjaRF939z9Iaf+0Wl25/1yM8BQlp6sfclLXrLz/Oc/f++E7OJ07IMf/OC9v//KV75y56Mf/ehe3PdrFpu4b33rW3fuda973fn391sgs57vXEzm043aRXvj3ZdE2gJz8fPewiBN+iw2bFX5AGRlUYGZ2ivCSVqk7Y3tD+wvyFksKIzvAPlYJGpe/PvxwwGHje8v+dL4GwcotgTIS18R/aWPiBxMYjHe9xXk/OT/J6EPkJNlG7VL5+7n7QY9BTmKLYGhJFt+d1lsun7wgx/cOx37spe9LP7uzl68v3G77Ncs/vni76V/n9UtXhg/szuZP81io/aIe2j3/nm6YbtBKwcAxtGbhN+d8KdFOAfdWZCTMr4DZKE32bOkyPKgV525+3/SpM8ndnZ+QUIfIAt7xZHJRu2bv2xn55fOih967BfkpLmZxXvChi1AHvbuIE8sNmoPm7vfWZCTUGwJDOGQ4Ye5LE32HLFRu69vUdB3iguAafUle/ba6yRVm0v1VHHe0+lagNn1JnvOj+AIe++AZHz/Vgl9gNntjcNpceRDdnb+zhkRH6HvPeAEFsD8jn1y9/8kuZmjNmr3LX5NZ8N29/+XuTuwLZu1GTp+YwQHrJrs2de3sXuGhD7AbHqTPQ9eY6N2V18V52fdkQIwq70xeMNkz76+d4GEPsC8OoU4iyL6RRvMFe29B3qKLV1lAjCfvbn7n5yK91295ty9b3w3dwe2ZbM2M3svjI+fiu+0O/iv88LYlyb0P/8hiwKAuRxfVG4mTt4/gjVYFADkJR2Df/BLN5u79959GE8AZpAW4qxZRL+wKMZ5W3oCy1UmALPpK8Q5vsncvafYUt4d2IbN2sz0Vm6ucerqoL6EvkUBwPT2CnE+cire12mbswaLAoA8HLspggNevriHdkPvTt4Nd3OVCcDkFnP3zlVSGxbRLzy95z9n7g4wvb2xd4BCnH2dvI7OZ8AWbNZmZOgXxkJfQt9LA2BafYU4myZ77qQYB2B+AxbiLDyh593wt/48AgAmcfy2CA7YtIh+n4Q+QAaSvMmVu2PzNrmZvoNSOp8Bm7JZm5M00b5F5eZB70wWBV4aANPZS8IMXIiz4HQtwLyOXRfBviEKcXalCf3/9AcRADC6vbn7h0/F+7YtxFnoTegrxgGYTF++5KsHmLs7KAUMxWZtJvpeGNtWbu57Ys+fsoQ+wDQ6p2r/4jDJ/D1O1wLMoq8Q5+QDI9jS3jviQafifQ/qOeUFwPA6p2oHKsRZOPEFEewzdweYTs8hqaG8/EsjCA5KAZuwWZuLT8dz34AvjIW+ljsAjKv3VO29IxiA07UA8zh+YwT7vjCeQ0neFf/nv0cAwGh6T9UO0BFn32LT94u+JH4I5u4A4+uMtQ8a7pDUwg+eGcEBxndgXTZrM9BbmT/gC2OhrxLUSwNgXJ1TtQ8d8FTtPqdrASa1N3f/+Kl438kHRDCQvbVAMr4/+/YIABjF8T+LYN+Ap2r3/Vya0N+du++9VwAYT5InGbIQZ98PfVkE++RmgDXZrM1AJ5k/8KnafVc7XQswmd5TtfeKYEB9xT0SPgDj6czdk5bFY3nT/xcBAOP4n/EMYyTzF5u/d0tyPu6uBZjW4EX0u152RgQHOCgFrMNm7cx6k/npPSYDOd7zpy2hDzCO45+KYN//b5wFwZ404eN+FIBR9M7dR0jmL2h1DzCdvhaZY83d3+PuWoDJHLsugn0jHZJauDBpdQ+wDpu1M+urzB8tmb+gghNgGv87nuHEeRGMwOlagGl05s4jz91P6IwDMI1PxzOMVYizsPfeSLoyKMYBGF5foeXQVw8e9N40D2PuDqzBZu2MpqzM39c5teulATC4zkbp2IU4C4pxAMY3YTJ/oe/dIaEPMKy+3Mzoc/d7x3Of3AzA4DqHpL4oniPZ2whOinGuSvNDAEvYrJ3R1JX5Cyo4AcaXLgjGTuYvdKpDJXwABjVLMn/X678sAgBGcfzGCPb95XiOSGccgHH1zd1PnhvBmJJinItdUwWsyGbtnCauzN/X+e+R0AcYzFzJ/D3J6dp3SfgADKbv+pIpPPxYBPvM3QEGszd3//ipeN+Je0YwNp1xAEbTycNMNHfvK8ZxUApYhc3amcyZzO/771HBCTCM438awb6/FM8ZPEkFJ8Ag+ubuUxVa7s3ddcYBmMYEHc/26YwDMJ5j10UQppq7L3z6yyMAWIPN2pnMVZl/JxWcAOP4aDzDiSna7AQVnAATmTCZv6AzDsA45ri+5DRJLkghPcD25jwktfDf0rHc3B1Ygc3aucxUmb/vxBdEsM9LA2BrneTKxMn8PUkxDgDbmzuZP/m7BKABcyfz9yR3Gx7XGQdga8dviWDfQ+M5kb13SVKMo5AeOIpl/wxySOb3/fd5aQBsZ/bK/F2KcQCGlUUyfyEpxjF3B9hOp+PZQ+I5ob7OOJ2cEQDr+V/xDCfuFcGEOvmgT8cTYAmbtTPoLAhmcuKREQCwtb5k/hwU4wAM6/htEez7wnjOTTEOwKBO3DeCqSXFONedjACAtfUVvMxRaNn578wgXwTkzWbtHGZugbyv89KQ8AEYzhwtkPdphQwwnM/EM5y4fwQTc/oKYDjZdE3YlXbG+cbfjwCAtR1PT7Am7YgnpTMOsAabtRPrJFTmTOYv6J8PMIgcWiDv0woZYBg5JfMXfujLIgjH/zwCANbS6Xj2RfGcQd97RTEOwIb+JJ5hztxMh9wMcAibtRPLKZm/cPKBEezTPx9gbX3J/Dn1JXwU4wCsr9OK8v+K50y+93MR7JPwAdhM2vHsHhHMJTl99UdaIQOsLbdDUjrjAOuwWTu1jJL5vXL/3wdQgrm7JixohQywtW+8MYJw4j4RzKQv4QPAevoS5XPP3dPOOM/RChlgbZ0WyDlIcjM64wDL2KydUG7VPXdKWiGr8AFYT25dExa0QgbYzt6cOKMWyPte/qURBJ0TANbTaYH8l+I5o773i9wMwJpyboG8T1dLYAmbtRPqLAjuHc+Zpa2QVfgArCnDrgR9CR8JfYDVdebED47nzF5xewT7FOMAbOXEuRHMLTl99VUydgAry/WQVKczjq6WwBKmflNKBuPOqadcSPgArCzbrgkLScLnb3rrA6wuqXo/cb8IZubuK4DN5do1YSHNEd3t9yIA4Ej/b853fSddLRXSA32kbSeSdTIfgI0dvymCkFObnTSh/5/+IAIADpVzMn+Pu68ANtIZL5ME+pzkiAA29+IbIwg55WY6/1u0QgZ6mApO5PhnI8jUlY+MIKjwAVjRx+JZCKevADaQUTK/l4QPwGrSrgm53WeYFOOYuwMcLfdCy87/Fq2QgR42a6eSbNbmtiC4ezzvpBUywPpy7JqQJHzSqw4B6DqecWX+gruvANaXfdeEHsdviACApTpdEx4Sz5wkxZ+KcYCUzdoJlLAg6Pvf46UBcLhj10Ww757xzNjFH4gAgOU+Hs+cJQkfnXEA1pRh1wTFOAAbSLsm3DeCjHz+gREE15gAKZu1E8j5TpTTuPsKYCsnOm0K5tdJ+ABwqE7BYo5dE3Zl17oTIHPpKdVsx1HFOADrKaBrwn9I1xi6WgIJm7VTyP1OlHDiCyLY5+4rgKWKaqMm4QOwslcU0i++886R8AE4XCmnVO8dz/DLaa4GgDv1FVrmSFdL4Cg2a6dQyIKg89LQbgdgdbl2TVhIEj4ALHfVJyMIJZ1glfAB6FdK14SFtDPON7jGBGCp4+lho5zzH7paAoewWTuykhYEe5LNBgkfgH7Hb4wg5JzM73ROcPoKoNfe3LeUrgkLEj4AK0lbIJdGbgZgiT+JZ+jkP3KmqyVwgM3akR2/JYJCpJsNEj4AS3w8ngXQbgdgQzl3Tegj4QOwkty7JpyjGAfgSH15jZwLLdPOCbpaAgfZrB3bn8UznHxgBKVw+gqgo7MgyL1rwq4XfmkEQcIHoOv4n0YQck/mS/gArKikrgm7bo0nAGt4SDxzVloxKDAZm7Uj6mujljunrwCO1mmjds94Zuy1t0ewz+krgK6PxrMkEj4Ah+ortMxdpxhHIT1AR5qbOXHfCDL2y0kx6DHVOUCwWTulL4xn7pJ2O7lXnALM7cTdI8iY01cAhyutjdq+tHOPhA/A6TqFlveOZ2EU0gMkCsxrfEPa5UwxDhBsw43o+CcjCCfuH0Hm0oS+hA9AorA2andKThEY3wHu0mkP/9B4Zq6TvJfwATjUiS+IIHfurQVYqq9rQhGFlmkhPUCwWTumj8SzMBI+AMv1LQiKkZwieONZEQDQaQ9/4l4RZM41JgDL7Y2HpRZaplxjAnCnEq+nulOSRzJ3BxZs1o6kb5AtZUEg4QOwXGdBUEgyv89zbowAgLLbwyenrwA4pZPfKKjQ0jUmAKsr4XqqfSeSe2t1TgAWbNZOpaSTVwsSPgArOXF2BAWQ8AHo1ylMLKSN2r60paeED8Apx66LIKQJ8uwluSTXmACEWromLOhqCeyyWTuS48lppdIWBJ2ET3qSDKBBVbRRk/AB6Khuc1PCB6AOyTUm7y7lvl2AEfUVWpak6I1lYDSGhrF8PJ6F6rw0nL4C6Cqta8JCkvD5SffWAnTvqy2s0LIv4eMaE6B1VRRaJi5WSA9Qx6GiJJ9k7g7YrB1B3+BaQ8WMlwbQunRBcPKBERQk7ZzwXb8fAUDLaihMTK4xUbEPkCiw0NI1JgBHK67F/S731gIpS/gplHjyakHCB+BQJRaxGMsBTtcZy3fn7iWOlWlCX5t7oHU1FFruSXJKxnegeZV1TdjjGhNonpTtCEq/r3ZfJ+FzXQQAraplQSDhA3CnWqrYO5vOEj4Apym2W1hyjQlAy/oKLUukkB5IGRbGUPh9tUtptwM0rJYFwR4JH4C7FH5f7b6+hE+xGxMAW9ob/2o8ebWQvLcAWtIptDw3niUqOa8EDM5m7cD6EiI1VcpI+ACtStuo7dwrnjWQ8AFaVlNBYnKNCQCh4IS4e2sBDkgLLdMxsiBpe35dz6BtNmvH9uB4lkrCB6DXibMjKJCED8ApfV0TSi60PPEFEYRaWjwDrCsttCy1a8IyCumBZlWUv+iM5a4xgabZrB3Y8c9EEE7cL4JCSfgAhNraqCWnC1RwAuxK5r7Fk/ABqENSSC83A7SotkLLmrpxAtszJAzttniG6gZdCR+gQX0LguK5txZg5/iNEYQThY+NEj4AobZCy5RrTIAGdQpVCm6BfKckv6RzArTLcn5olbWSlPABaISED9Cij8ezJjonAI2rsdDSNSYAu9L7as+NoGRJsajOCdAuW3EDqvLk1YKED9C4Gu+8kvAB6KqiUFHnBAAAalR714QFhfTQLJu1AzqebmLWkiiR8AFaZyMToDrVFlqmJHyAxtRYaLlwt+TeWoX0QEtqbQ+skB7YZ7N2SDfHM5z4gggK1/n3kPABGtK3IKilevNRXxJBkPABWnL8sxHsq6RAUcIHaF6l4166LHnKGREAtKjWQstdtW5MA4ezWTukSlsxdP49JHyAllW0IHh/sgB4lFkB0JJks7aWQss+Ej5AK/q6JtSSm0mLcd7+wQgAGpB2TaiqE2TSOQFok7TsQPoWBFVJ/n0kfIBW1NpGbSHdmHj/H0QA0IJKCy33JAmfqv7dAABoXk2Flum/y/E/jwBoimX7QKofRN1bC1AdyXugVbUXWqYJH23ugVakhZYnHxhBLZL3lfEdaEbNhZapD8UTaIo07VA+E89Q08mrhbTdTqf1BECtal8QSPgADeoUWp4bz1pJ+ACNqq4rmEJ6oEG1F1oqpAcWDAVD+Xg8K9V5Kbq3FmhA7QuCPRI+QIs+Hc9wIilMLJ2ED9Cslk5eLSTvM4AadQotK5u771FID82zjB9AX6VmbQsCCR+ARkj4AC1oofBQwgdoTAuFlmnXM4X0QBPSjpY1dsVRSA/NswU3hhpPXi1I+ACNSVu+19bifkHCB2hNC4WWeyR8gMbcEc/W9L3XAKpSeUfLXgrpoTk2awfQub+11sRI8u/1k2dFAFCrRjcuJXyAptRaaJmS8AEq94QGCi33PDyeodMeFKAirRRaKqQHbNaO4MQXRFCZ9N/ru26MAKBCzZy82nU3CR+gIa0UWkr4AM0xzgHUr5VCy10K6aEtNmuH0MiCoLNJYSEEtKTiBYH5P9CyWgst+0j4ALVqqdCy897SOQGoWDMdLReSQnqgLTZrt9RZEDyo3gVBHwkfoFYt3Fe7T8IHaEpScFj13F3nBKBVFRdaKqQHWlZzoWXaGcfcHdpis3Zox+JZKwkfgOpI+ADNaqiNGkDNjt8aQai50BKgKQ0VWnYORSmkh6bYrN1SpxXDveIJQNlaOnm1kGxY6JwA1KgztlU+tuucADTj5ng24nFfEkE4lmxWA9Sgr6NlzRTSQ9ts1g6s9juvJHyAFrS2IFj4jvMiCDonADXqFFqeG89KSfgAzWis0FJhJdCkFnYyFNJDs2zWbquxBYGED0Cd3nB7BAANqb3Qco+ED1C5FgstO++vD8UToCKtFVruuXc8gebYrB1SAwuCPRI+QOXSBUELd15J+ABNaKzQco+ED0B1mnh/ASRaKLQ8eU4EQdczaIfp3RY6m5QtVOYvJAkfLw2A8kn4AM1ppNAyTWqZuwO1OX5LBKGFQss9rRwYANrVYKFlZ79BIT00Q2p2C51WDEnlCwCFavHk1YLOCUDFOmPaWfFszafjCVCLP4tnY154XgTh2K0RAFSgM3dvpEBFIT20y9d/QE3cebWr8+8p4QNU5NpGFwQLr79/BMHpK6AmnULLu8ezcp2ET1KQBFC8RgstX3t7BAAtODOeLVBID02yWbuNRhcEEj4AdXru5yIAaEArhZZ7JHyASrV68mqh8x7TKhOoSKfQ8h7xbEFyBSHQBpu1G2p5QbBHwgeo1IXJgqCZO692SfgAVWu1xf1CkvDROQGgfE29x4DmtVRoeTK5atHcHdpgajeUlloxLEj4AFRHwgeoVcst7gFqdjy5p7WlQss93mdArRoutOwcinIFITRBWnZDTbdi6PE3fZKAWrR88mpB5wSgBY0VWnZOIkj4ALW4OZ6Nesr9IgjHks1rgBK13tGyk4dyBSE0wRbbQJq682pX+u/7nz4ZAUDBmm9xv+uv3TeCoHMCUIO0xX1rhZYSPkC1Gi+0fPsdEQDU7Ix4tkQhPTTHZu2mGl8QSPgA1Om/WgAADWit0LKPhA9QOi3udU4A6tTpaHnPeLYkuYIQqJ/N2g04edVPwgcoXfN3Xu2S8AGq1Hih5Z6HxzPonABQPoX0QAtaLLRM/53N3aF+NmuHcCyerZHwAWrT+J1XCxI+QG2cvOr3bY3d2wvU5wvTXIxTSHsU0gPFU2jZpZAeqmeo20CnFcO94tm4958dAUCpbEz2kvABqtLoCiitzv9XN0UAUKgvvj6C0OLJq4VHfUkEQSE9ULJOoWWjFNJDe2zWDqDVBUH67/2oZKEEUJK+Dclmqzd1TgAqcmFaaHluPBsj4QNUxzi25/02NoCa6YpzJ4X0UDebtZuwINgj4QNUzYIAoEqtFlr2kfABStV38qrVQsvOe02rTKBgF6bF4i23uFdID02xWbsmJ68OJ+EDlKozlje8IJDwAaqioPAuSSGShA9QjYYLLRXSA1VJ8g8KLe/y42dFAFTJNuO2Wj95JeEDVOLYdRGElhcEEj5ALZy8SiSFSFdKfgGF6py84jQK6YFiyT8s9Q9vjACoks3aNXU2I1tuxbDQ+r8/QCMkfIASPTZd7TReaHnynAjCJel9vgClSE5enXxgBK1q/SABUK2WCy3TubuNbKibzdp13RzP0HorBq0ygWokk96mT14tJAmf5n8/gCIduzWCfefGs1GdwhsJH6ASzRcWJoX0up4BJep0xVGIAjRE6nVdThYdTsIHKFAnuWNBsPPO8yMInQ0PgBKkd16l1emNUXgDVEOh5eEU0gMFSlvcP+A+EbQsyU/JzUC9TGfXZUFwGgsioAYqz7uelP6eSPgA1CFJ+GhzD5TGyauuTtczhfRAiZK8w9vOiqBlSeeE1rt8Qs1stW3DguAUCR+gdMnG5InkVGmLJHyAKii07NIqE6A63m8AdUrvrTV3h3qZzq2hswl5j3i2TsIHKJ02Mh0SPkDpnLwCqNOFN0ewL8lJNEshPVA6hZYdnbH8Q/EEqmPIW8PxGyLYd2Y8Oc1L/L4ApbEg6CfhA9REG7U9nc4J2twDpUkKLbWEPOVn7x9BUEgPlEShZT/5KWiHr/sWLAhOSX8fXn1TBAAF6GxAWhDcRecEoGAXpoWWd49n4zoJH23ugdIotOz17Z+LAKBAjzWWL6eQHppgGFyHBUEvCR8AAHKn0HI5CR+gFJ2TV9xJ5wSgZMeui2CfFvd3UUgPTbDduCIJDIA6pVdeWRDcRcIHKJpCy+WS6nwJH6BYuuLcSSE9UBOFlsv9ydkRAFWRstiUBcHpkt+PY8kdMgC5ekrSJvPkOREg4QMUS6HlEZLCpKslw4BCXJgWlyi0PJT3IVAM+Yal0o3rv3h9BEBVbNauqFNtbkFwOr8fQCUkNADK1yk2UWh5mrQw6aL0fl+AXCVtcZy8SiTvO10lgFIZv+6ikB7aYNhbVdL60YLgCJ+JJ0DutMk8XJLwsZkNlCDt8vKU+0XAns5YLuEDlMJc9FDvPj+CoOsZUILOfeQKLYEGSUkziM7m9cfjCZCxTrLagqDjUw+MILjXEChCUmj5T8+IgD0Kk4BiKbQ81MXpXD15HwIU4e7x5C4K6aF6prWrsiA4lN8PgDrdRzU+QJ0kfIDCOHl1tE4hvc4JQAEuTK/kOCue3CW5glAhPdTHFtsKnLxakYQPUJg/OhnBPvdvd3QSPqrzgRIotDyahA9AdbzvgBq4fhBokWncJrRR6yfhAxTmOTdGECwIujoJH9X5QOYUWm7mB8+MACBTF94WwT6Flv0U0gOlUWh5JIX0UD9D3wo6m473jCcAZbPxuBEJH4DypQmf77spAoBcfSaeQaHlEjaxgYJ0WtzTSyE91M9m7SqSShULgn4qfICS9G04qt5cwqk0oCCdQktJ614SPkBxjFMb0fUMKIr8w8oU0kNdpKUZjIQPUDQLgqWuPj+CIOEDZE2hJUATFFquSCE9kLELdbRcXZK3kpuBupjariLZdLQgACifSe3qLkp/ryR8AOrgXkOgEJ02mQotl+oUKSmkB3KWFlrePQK6dAyCqtl2PEInYWFBcDgJH6AUyQbkieT0KHeR8AGKotBydUnCRyETQPm89wDqpGMQ1M0Ubl1nxZN+Ej5AKW6NJ0eS8AFKodByOz9irQNk6sJ07u500eEU0gOlUGi5OV3PoCqGvyMcvyGCfVoxANTBgmA9Ej5AAYzl60mr8198YwQAubk5nuHkORHQz2Y2UAAt7tfTWevoegZVkc5Yk3YDh+ssmFT4ABmy0bgBCR+gAMecvFqLhA9QjGR8Mp9fj65nAHXyPoR62Kw9ioTFdvz+ASVQvXmktFhJwgfIUlIoqNASoE46KRyu8/5TSA9k6MIkr/Br50fAckn+Sm4G6mF6uyYLAoDymcyur/N7JuEDUAdt7oHMdcYlhZZH0jkBKEKSV9AUZwV+k6Bath4PYUGwIQkfIHdJm8wTqjeP1KnOl/ABcpSMTQotV5AkfBQ0AQBAnnQOgnpJX6zDYLgaCR8gd8altdnwAHKn0HIYTzkjAoBMHP+zCPY5VbQahfRA7hRabk/XM6iGIfAQx2+IYN858QSgbBYEm5HwATJmLN9MWp3/9j+NACAXt8QzOFW0IpvaQMauVWi5kc6aR9czqIaUxhosCFZzMt3UVuEDZMQG4xYkfICMHUta3BuzViPhA2TPuDQIXc8A6iTPBXWwWXsYC4Jh+H0EcqZ6c2VpMY6ED5CVpEBQoSVAnXRSWE3nPaiQHsjYO8+PgKMleSy5GaiDKe4aLAgAymcSu7nOqTUJH4A6aHMPZKozHim03JxCeiAjFybXD54dT1aggxBUyfbjEhYEW5LwATL14GMRhBOqN1fWqc6X8AFykoxJCi3XkCR8FDYBlM97EKAN94knUDZTt1Vpo7YeCR8gUx/9VASsTcIHyJVCy2G97MwIAGZ2PDl55TTRmhTSA7lSaLmxtJD+U7qeQRUMg0t0NheTe/oAKJTToIOS8AEoX3on+StvigAgM+4jX1OyuW0zBMjBtfIIW+mM5fJcUAXTtGWSihQLgvV0fr9U+AAZ6NtYlLBYU1Kdr3MCkIN0LLpSi/vtSPgAuTAebSXNzRy7NQKAnOiKA2CzlolYYAE5siBY2zttgAA5SgoD7x5PAOqi0HI9ncJKhfRAjs6NJ6vT5h6qY5q7TLK5aEGwHr9fAHV6kpO0AHWS8AEy0xmHFFqurdP1TCE9kIELk/vIT7h+cH1Jm3tdz6B8ttR6WBAMxO8bkJnjfxbBvmRyy9G0uQeypNByexI+ANXxPgRow3efGQFQLNO2Hiazw/ii+0YQ3I0CzO6WeIaTqjfX1nlHqs4HZqbQEqBOnaIRhZab0TkByI1Cy62lhfT//KYIgGIZCnt0NhUtCDbyhxYAQG6SBYFExTD8PgKUr1PApHMCMLdkHOp0eAGgONfKHwxCIT3Ux2ZtHwuCcdwcT4BMqN7ckFNrQM7OjSdr6RTeSPgAVOHzD4wgaHMPZEV+AWCPNDWj6WxyfyyeADPQJnNASccJm97AnI7fEEE4ocX9RozlQHa0yRzE3VxJBVAnbe6hKqa6fSwIBuH3DaBOaTGOO8kBKqGQCciV8WljnUJ6be6BGV2YFFpedX4ErC8ppNc5AcpmOy2hAmVcfn+BuXQmre4jH46EDzAnhZbDSd6NinGAuXRyB8fiydo670Vt7oGMnBFPtvcWVzlC0aQyjqJ6czvJ758KH2A2yb3Z7iPfnIQPkAuFgAB16uQO7hVPAMomfzCYk8n1L89MTi0DZbFZm0gXBO/WimE7Tq4BuZDQB6ifQsthJYVOAJNJTvYrtNxS8n5U7ATkQleczV2bjuU2wqFohsNU0srxzHgCUDhtMocl4QNkwFg+rM5miLEdmEtSSG+831JSSH9HPAGm1MkbKLTcymO9G6EqvtKMqpPwca8hkAMLgu3pnABk4Nh1EewzNm1Fm3sgG8afUT3BFVUAdVBID9WwWZuyIBiUhA+QA5PV4aV3o7iTHMiBNpnD8w4FpmbcGZ5CeiBHJ1w/ODi5GSiXzdojaLUDUD6T1eEdS+4Rk/ABqITuE0BujEtbU0gP5OD4DREwHJ2FoBq2Ig/QN38kfh+BuSWbtao3t9epzpfwAeaQjD0KLQeQJHwUPAEAQBn+wrEIgOJIZxwguTOSJOHTOY0FMDbjzuC8M4G5KbQEqFPn5JVTQ8NI3pPaTQOTU2g5uPcmhfT/51MRAMUxJB7Q2US0IACog1Ofk5DwAShfeie5NvfA3NxHPhA5LmBG8gXjeGy6uyP/BcWyWXtQkoiwIBiJhA8wM9WbA0mq87XKBOZ0tRb345DwAahCWoxj7g7MSlccgNNIVzO6TnW+hA8wIW0yR5RU53fGe4ARpW0yXc8EUAltMkfR6SankB6YkAKREWlzD1Uw5T3IggAAVpZ2oHAnOUAlFDYBuTAeDUb3OGBWaUdLXXGGkxTS2xiHMtmODE5eTUuFDzCVziTVXU3jUZ0PTEmh5Wi+6L4RBMU4wFQ6uQJtEwbTeU/qegYAkA0pDaaRbH6r8AEm85l4BhXlw5HwAajTHyqsBGbSyRXcK54AQK/OlVQK6aFINmuXuWc8GYaTbMBcTsYTgGroijOt+8QTYHRpm0yFlsNK3pe6ngGT0RVnNNemY7lCeiiSYTEcvyGCfWfEE4CyWRCMS8IHoDppdf6nVOcD1CEppLc2Aqag0HJcjzWWQxV8lZdQvTmszu+nhA8wARuHE0gSPtrcA1NIx5qTD4yAcajOB6ai0HJUaW7GneQAAHkw7d0nATEq9xoCWVC9Obq3K3YCppAU/inOAYANKKQHJtDJC7sub3hfGM+gGAfKY7N2CdWbAOVzynN6T0mvFQCgTNrcA3NTaDk+hfTABI5dF0HQ0XIE94onUKylW5J33HHHziMe8YidY8eO7Tz96U/fOXnyZPyTuxz1a66++uql/9mc6Js/EQkfYGpppbjqzcFZZAGz0CZzfNrcAxPr5AjMMwfnfQnQhkvPiAAoxtJp2qtf/eqdn/qpn9r5/OdPzZY/9rGP7T0POuzX3HzzzTuXXnpp/AQ7Ow++TwRBwgeYmo3F4WlzD0xNoSVAnTo5gnPiyagU0gOjU2g5upPJO/PyP40AKEbv0Lg4MfvmN7955+EPf/jeqdkXvOAFO2984xvjn55y2K9ZnKR9yUtesvOzP/uzez+X5o4HRsCgPpr3AWsAAGAZ9xoCY/tMPINCy5EkRU4K6QEqpJAeirO0juUBD3jAzn3uc9dRyN/93d/ttDNe9mtOnDixd6r2b/yNvxH/JG/Hk/v13quqEKAOqjenoc09QHU6myQSPsDYFHhPI2lzn57GAhiSrjgAqzl2sudC2cWp2YsuumjnHe94x8655567d/fs6173up23ve1te6doD/s1b3jDG3Ze/vKX7/zET/zEXlvkF77whaf95/af23rUox61c9lll8VP27n0oU/b2Tkrftj1FdffsPM9n/oP8RND+eH7fNXO7zzg/Php1+d2di7/4yvih/osvg+LE+fQghw/762NOXO69At336P3jB8Wbtn9vf648R1qkOPnPZ271z7mzOnSL979vT7g8v9hbIca5Pp5b2nMmdOP7a6TfvvgOumzu7/XHzO+Qw1y/Lx3cjN37I45/8v4PoZ0nVT7e9T4Tu4W+5fvf//746ejLd2sfeQjH7nz7ne/e+fBD37w3kbsb//2b++87GUvi1+x/Nd85Vd+5c7jH//4+FWnLE7Z/tIv/dJevNis7fmvnNWx34sgnPzyCBhcS7/XV1xxxc7Tnnb6YhNqlePnfVG9efwD8cPCg3bHHG3uR9H5vX543RX6xndakuPn/dh1u//nwCnPE4/UOWEs6dy95t9rYzstKWLuvktuZhzX7v5eX9jQOsn4Tkty/bwfnFOau4/n2K27/+dDp+I9cjNQlN6h8Ywzzth51rOetfOhD31ob2N1UaXwnOc8J/7pKct+zeK07eLnxV8f+chH9jZqFydrAWBKnbuXknZfDKfze+1eQ4A6aFMHzMX4M5rHpplAbe6BEe0VWgJwpKV1LC95yUt2nv/85+/c7W5323nMYx6zd3p24ZWvfOXORz/60b142a8pib75E0t+fzu//wBDSTYMO3fvMRj3GgKTch/5dJJCp05xDgAAkKVHWSdBUZZ+ZRcnZz/4wQ/unZA92P54Ee9vyi77NfsWv27R/nioe2op39++XwRBwgegfDZKgKkotASok644E1NID0xFoeVk0pbH7/9kBEARmh8e0wXBVQfuO2d4v3lHBABjc7pzVhI+AOXrdE7Q5h4Yy2fiGXTFmZZCemAM8gIzkxeDoqhlSRIOZ8STiUj4ABNRvTkyp9sA6ifhA4zlZDyZRnJyOT2NBTAKeQOApaSumZTqWGAK2mTOwL2GwASO3xBBOKErzqgUOgGT0SZzVsdujQCAssl/QbFMfy0IJtX5/VWdD0zB2D46xTgAbdDODhiacWV679XmHpjAY5NcjELLCSSF9IpxoBzS1wBUp3Oq89x4Mh0JH2AMCv2ml1Tn65wAjM6poNGlGyjer8AYzrwuAgCO1PRmrTaZM0l+n1XRAoNLNgqd+pyBhA8wAV1xJpBU5wMMTREIAIzjHvEE8ie9weSedb8IgoUZQPlsmABjU2gJUKm0I4sikWkopAfG5vrByZ08J4LwWV3PoBhND5HpJqG++dN48x0RAIzFqc4sSPgAlK/TnULCBxjasXgGXXEmkmyKK6QHhiQfkAn5MShG2/UsEg158OcAjEz15kSccgOm5OTVJDrvUAkfYGgn4xnM3eeRnsYCGJR8AcChTIGZnCpZYFIWBNNRnQ+M6PgNEQRzSoBKKALJwrFbIwCgbPJgUKS2N2v1zZ+F6nxgTJ1WO0lbNcZj4wSgUu41BEZiPJnPe7W5B0b0p/G8k64400l+rxXjQBlsTwJQlc5pznvFk+lJ+ABDUuA3n6TwSecEYCidYm6ngSbzWIX0wIi+QVccgLU0u1nbqd60IJiW6nxgLMkGoQXBjCR8gBHpijMhhU/ASJz2AYBxfZF1ExTBV5VZvPy8CILqfIDy2TgBxqLQEqAR2mROSyE9MBbXD87m5DkRhD/8ZARA1podJu+I574T50fAJF5xewQAQ3OaMysSPgDlc68hMBpdceaVbI4rpAeGIA+QGXkyKEKzm7VPSPrmMzMJH2Akqjcn5rQbMIJO8tjJq0m51xCYirn7vNLTWACDkCcAOJJpMLNQLQuMQZvMDKjOB8bg5BVAnRR/zCrtnOAOYYBKyIdBcdrdrNU3f1ad328LNIAq/dBZEQBQFe3tgG0ZRzKk6xkwgJvjeSddcSb3qPtGEBTjQP5sUQJQDW0y55eedvveGyMAoGxJdb5iV2BwTgFNTpt7YAxPSa4f1BVneu9XEAXFaXKJrU1mJpLfd1W1wNa0ycyPhA8wBF1x5pcUQKnOBwbnvlQAABolzcFsvihpx+BeQ4Dy2UABhqbQEqBOnRyAQst5KKQHhqbQcnYn0wIobe4he4bKXVedHwGT+kMLAIAmSPgAlO+96SaKhA+wLV1xsqSQHqBCup5B9prcrD2e9M0/I54AFE71Zh6cegMGJGmcB/caAlQqaXNv0xzYhq44AJuRxmY2nQWA6nxgCxYEGUkSPjZagK0k4/sJXXEA6qDQMgtpq0xzd4BKaHMPRWlzKqwKPAudhZg/F4AqvV11PrCNm+NJdiR8AMp3bTqWK6QHttAp+EiKuZlQkntXjAN5U7e4S/UmQPlMOvORdk54SnL9AACF0rUCGIiuOPnQ5h4Y1G3xDFqrz+jceAJFaG6b0oIgM9oxAENJK8BVbwLUQZvMbHzHeREEhVLAYJJWvAAUKtmsBWA1Uh1kRfINGIrqzflocw8MRSFfXt5wewQAW+oUe5i7Z8X7F9iY9X823pu+W7W5h6zZGnPyalZXnR9BOHZrBABbUvwBUCFdcfIi4QNsKhk/FFrOzPsVGInczHy0uYeyNDdcHk/uzbMgmNcTtE4DhmLSmRdt7gGq06nOB6AOyUEGbe6BTbh+EGBzaluYVWezXHU+sAEbgRmS8AEG0KkG1xVnVqrzgcEk44eTV/NKczM/dFYEAFRF/gzyZTrMrNxrCAyhM5ao3gSowpnXRRB0xQGA4Z0Rz33fe2MEAGvoFGkrtJxfkh9THAX5au/rqXoToDqdysCz48lsTp4TAQB10eYe2JI2mQB1+tYzIwgKLTOQbJgfuzUCIDtNbVVaEJRBwgdYV6d602bt7DpjuTb3wCYUWmbnS+4bQdDmHtiasX122twDQ3jTTREAsDZTYuZn0xzYVrIRqHpzftrcA9TpDxRWAlvqFHmcG08AYFCd/JhCesiWzVpm9z8fEEFQnQ8AgK44AJWSKM6TNvfAtnTFyY4/AyhHU1/Xm+O578T5ETCrv3JbBACbsiDIk4QPQHXeqzofGJiuOJlI7jVUSA+sQ6FlIXQ9g2w1lc5+yg0RkBXtGADaIOEDrKMzZiRJZObhXkOANlxtEx0AYDLOHgFQNNWbGbOxAmwj2ax18gqgErriZCl9z16k0BKgDrqeQRHamhJbEGSp8+egOh/YxrF4kp3fPTsCgFXcGk/yI+EDbEihZUF0PQPWoCtOvh533wiCrmeQJ9uVABStM8m8VzyZXXqv4WOujwBgFQr4iqEIFqB8CumBrSQFHifPiYDZKayEMjSzrFa9mTnV+cCmkgWBNpkZk/ABtmBDMB9vOT+CcMwpaGBT58YTgKrI7QKsR8qDPCStMSTjAMr3WGM5sCGFlnl7ptZpwIY6XXHMF/OikB7YlOsHs9U51KDNPWSpmWFT3/yyqM4HNmVBAADjkvABNqYrTlHcawhQPm3uoQztpLQtCADqZJKZN9X5wAYkhwFgBg42ABvQFQdge84fkQXV+cAmLAgKkCR8bMAAq3j9WRHskzzOiup8YGPaZBblhWdGAEDZFNJD9tqZFksgZE3CBwCAfc+9MYKgKw4AjC993772pggADuH6wQIciyeQrWZrGFVvAlTo7vEkGzZYACqlOh9Yk644BVJID6zgwclGoDxAhu4Vz6DrGeSniS1LC4JCSPgAa+pMLtO2meRHm3tgFdpkZu8v3ScCgE2dEU+y4X0LbOKjn4oAgI2ZhgFQrmTjT/VmfrS5B6jTH52MIKjOB47SGSfuGU8AYFSdfJlCeshOE5u1Egdl+B8PiCD4cwMAaI+uOACVUmhZBl3PgHXpipM9fyaQvya+predE0E4cX4EZOWLb4sAYFUWBGWQ8AGojup8gErdO55BIT1wGIWWhdL1DLLTRFr77OsiIGsSPgAAdJLCSdKYPGhzDwAAAMNwBgmAIqneLIjqfGAdt8czaJMJUAldcYpwMulOB0AldD2DrLUxNbYgKILqfGArxvZi/MhZEQD0+Ww8KY6ED7CM8aEcnT8rXc+AQ+iKU46vv18EQSE95EVqG4AidSaV58aT7KTV+S++MQIAyqarBbAp40e2FNIDa7klnkFXnHz96h0RAFmqfrNWm8zCaMcArEqFdzGM5cBadMUpxn87P4KgOh9YmVa7AHWwAQgwCKkP8qJVBrAh1Zv5Up0PrEqhZVn+qs1ZYEWdYg5z97wppAdWpdCyGJ28mUMQkJXqh09988vy+aS6VnU+AAAUQsIHWCYZHxRaAsC0FNJD3uqvdbk9nsGCIG93uzUCgKOo3iyL6nyA6lhbAVQqOeigkB7ooysOwHDqT21/Np4UQTsGYBU2+gok4QOsQFecsqjOB1ZmfCjavzsrAgCqIr8G+XAOibxZ0AGrUL0JUIek0NLJTYA66YqTt/T9+403RgBwgCLsAsmfQbbqnx5rk1kUfz7ARlR6F+dbz4wA4KDkChMKoM09cARtMgEqlY7vuuJk74fuH0Gw4Q75qHprTKKgDv4cgVRnMnn3eJKttDr/TTdFAHCQrioAMDtt7oGV3BzPoCtO/r73cxEA2WnrHKPqzTL4cwKOktxnbUFQIAkfYAW6ruTvnedHEFTnA0d58H0iAADmleTXgPlIf5AfLTMAqmPDBTiKNpllepLNWeAIaRHHR09GQN60uQeO4vrB4jjsAPmqegjtVHXbBCxC+tJQnQ90OJUJAFnoJHxU5wMpXXGqIDcDUD5t7iFfdde73BbPYEFQBgsAYF2qNwuhOh84hDlgJSR8AOrgwANwCF1xAIbV1GYtZVCdDxzGgqBgScLHxgxwKEniIiiYAo6kTWYVfuisCAAom0J6yFLdU2RV3UXSjgEAoEFJgd7JcyIAACaXFtJ/740RAOzqFF8rtATYSlP1jKo3ASp0z3hSnAu9l4FDqPAuiOp8YAldcQAq9bl4BtcPluMt50cQdD2DPFSbJrUgqIuED7CvM4k8I55kL128vfeTEQAsaJNZLicpAKqj6xlwqD+LZzB3L8czbc5Clgyj5MnmOrBM0iZT9WY5JHwA6nRV8i5WnQ/sS8eDP31ABABUxUGbcnTyaEmeDZiHzVrylFTnq84CAKiXrjhle4LNWWCZJAF8v9sioAza3APL6IoDMKhqh1GXnJctrfA5dmsEABYEAJAV1fnAqnTFKUySS9M5AVhQuFE2Xc8gT/WmuJMEwclzIqAInQXA0Amf97731F//6B/t7Bw71v0LgHFMVZ2/GOPvcx/jOxRCoWVlxkz4LMb3dGy/zVE9gKItxvaLLuqO70AZdMVhmWuu6Y7txnfo1cx5JBU/ZRml2nYx+f97f+/UC+GrvurUX699bfzDhJcGZEmbzAqMXZ3/lV951zj/6Z5KH+M75MlcvWijd7k4uEG7GN9T56jMhWzpilOVtwydq3nrW+8a20+ciL95gLk7wDjGLKQ/OHc/fjz+ZsL4Dh31TpMd3y/aoO0Y9l8Qi8n/z/98/M0VeGkAlOM//sdT4/biCZTn5ngGbTK50/48/iiLjjkADCp9Hz/zhgi2tZ+neeYz428cYvFrgazoilOfwYqpVp27Ax3N1DSq3mzQwU1aoE4WBOX7bDw3tT/WL07UrkrCB2B4Q1fn/+IvnhrfV7WsYw4wG11xKjTEwYh18zRyOpCf5AYKhZbleef5EYRjt0awqf3czDrW/fVQuSq3MC0IKrFpwmfVTdonPnFn5+TJ0/9KSehDVgZvmcvkOou42+O5icUYfdhY/x/+Q//YLuED+dEms3xDFlAt5vLf/M3xQ+IhD1k+vkv4AAxq8PfxYeP0e96zPDcD5CXZrKU8Txoyv7a4dnCV3MzDHhZ/Izz60REAC9Ig1OX+9z/85fCEJ9z1gnjnO+NvHmKVljzAdJIrSFVvlmewNvc/8zOHj/eLcf7CC++KU4pxAAaVvpM3LrBalsi/7LJT4/n//t93je+LeT2QrXQcuPWBEdCmZeP7fo7moovib/S45poIABhCJ5+W5NtWthjbl107uD++78/dP/zhU89973tfBMCCzVrylVTnH1rRuX+a9qab4m8k9l8O7373XS+IVXzkIxEAkI1nP3tn5zu/M344YH+sX/yVetGLIghO10I2dMWpwyDdLw5L5H//98cPB/TN65f9/wCmlyR+z9m2xSLz2LbN/X6+JnXJJacn8Q9z/HgEQBZ0xWHhsLl73/jel6sxd4c7VTmUuuS8DmmFz9Le+f/iXyxPul955eqT/wUvDcibBUEdttmI+YM/2Nl505vih8RhY/2P/VgEAIxhq+r8ZYn8Bzzg6Ll8WowDZEtXnEIlObW1inOWXVuySOS/4x3xQ4++3IzOOJCFtQs2yNLWXc8O26g9bO5+7bURAKk609yfjWc4eU4EFKWzAOhL+CxeDMsSNIvJ/Vd/dfywhsVLBYDJrHUn+SMeET8csBjv+xI6R/n1X48AmJNCy0qtk/DpS+S/6lU7O9ddFz8c4qlPjQCArCzyNcs2alctqD9IZxzIk6447Vm2UXtUkeXCBRdEcMCy/3/QmDo3a2+PZ1DxU6Yjq24Pq+DZJGm/r++l4qUBs9MmsyKbVOcfVpW/qa/7ugiAWSVzd8q0cbeLvnn2G9+4s/OSl8QPRzB3h3zpilOlZ50RwSZWSeTv68vrOF0LMJxN2ty/9a0RJNbJxb/lLREAB9U5VV732D5ZWtqOYTE5X5aAWWfif5h//+8jACALQ1TlS/hAnnTFqdaRCZ8f//EIDnje807dTb4OnXEARpMW0r/5TyM4TF/OZp1E/jJO18LsdMVp2CJ/8sxnxg8HrDu+f8u3RAAc1ERdo+rNiiw7WfUVXzHMxH/fk58cAZCr+94nAsp3SzyX6Uv2bNo+LSXhA9nRFadg63S9WMzrX/jC+OGAn/7pCNbgdC1kR1ecih11QGLZ3H0TinEgP7fFM7iPvFxXnh9BOLTr2bKc/FD5+O/6rgigXdVtY1oQVCb98+t7Kbz73Ts7//k/xw8jkvCBWaWTxk8OWJ/BtDqLuTvi2Wfojdq+hYTxHealTWY9Vj1ZMUayR0IfYBRrvZeXzas3nbsPUZwJDCvZrDV3L9clq1xJta9v7j7k/Pt1r4sA2mU4pWyLl8ITnhA/DEzCB/Ly6XgG1ZvlWtrmPtWX7Pm1X9s+afMglVwAY0jfzUur88eoyu97Nyw2hYEs/HJyeocKLRtzh+yCtqDQErKiK065Onm1JO92p76N1G2K6BcU0kOHzVrydlh1/rYvhaP0/f/20gCYxrJkz9d+bQRb+Hf/LgJgbrri1OXQ1mn7ptxAff7zIwCmdvyGCMI3rHN6h/wk7+fezZmx2mNK6ENedMVpy2LunrYo/pEfGSYnf+21EQAL1Q2nLjmvS1rhc+L+/+ZUMPZG7T6nayEfFgR1OWpDZswWO1O8PwAadGR1/iLZM1Yyv88HPhABMDddcQqX5NY6ube+zdMh8ykveEEEwJycoq3LSl3P+ubu//SfRrClCy6I4ADFODSsvlT3zfEMJ8+JgPK89707Jx/4lvjhlIv+wbdMt1G70PffM+VpAIBGHLnoG3vstyCAWSi0rMuRCZ+xN2qdvgKY3rIcyZBz95/8yQiArOiKU7errorggKEPNn33d0cA1LdZmyR7VfwUKqruj9/4d+JvhO88Nv+JqL4kEzAqbTIrdFh1fl9ifeixX0If8rDsXiTq05fMHzrZs6CdGuRBV5yqffMZESxM2THhoN/4jQgA2Nhhbe4vvjiCMEYR/dd9XQRAfdPlvuP6lGfZhugcf75jJJEA6Ne3YTrWOPxrvxYBkAttMivWN78fowhTOzWAwaXv53/7pxFMVYjT55JLIgCmoitOQ6Yool8wd4c7VV/bqHqzQLkNyH0vIi8NmNc94kk9FtcYLEv2jLEgWPjar43ggGVt3ABYTV91/hQt1IBs6IrTgP1C+qkKcRb6Tuuau8O0kq44Ci3Ld+X5EYS9DfmpC3F0xoE9VW1lWhBU4OqrIzjgl0+fkHf+nKcgmQSz6lRvnhlPitVZ1C3G9imTPcv84i9GAExCm8z69J2wSFuoLYw5vkvoAwxq5ffz1LmTZV3ZgEmYu5fvkjTftjB1bsbpWthjSCUfi0H48Y+PHw5Y3FM7t74XkpcGTEf1ZnU6i7q+NvdzFMq87nURALCJk+dEEE4+8C0RHTDFXYYpCX2YzTuTUztUIs2JLObuYxda9r0/5GZgNrMcqGFQnfzaD/eMs1PM3R2UApu1ZG7xMnD/AUCbpjhV6/QVzEZXnDoduzWCZaZKxGinBrM5fkME4Ul9p3Yoz1Hv6Snm7gv3liSC2eiK056p5u597xC5GRpT1ZDqkvOC9VVCxssgrc7v/DlPRUIf5tN36pLyHZbwmbOq0ukrgI2l1fkX/YNviShMlczXTg2yoStOJZIc24n7/5uIdk05d3/72yMApuQUbZ06G+7fkMyXp5q79/n7fz8CaENd9S9JFbcFQSG+7/siOGAx0Y+XQac6P2mHOisJfZiF6s0GTLkg0E4NZqHQshEHEz5TtFA7aM7CH4CWTDl37/vvUkgP09MVh7F98IMRQBvqSndrrVOeRTL8Fa+IH8ILX3ja5DurTXcJH5icNpkVW1adP8dY+63fGgEwmZwK8BhMVgVVEvowD20ym/DXb/xnp4Ic8iQK6QE2tyzPNnWhpUJ6GlfXlFmbzLIsS5T8y38ZwSmdhd2cf859CR8vDYBhTVmZv+/bvz0CYDLJHE9XnMpNnexZRkIfYCPpFVXnXva/TgVzzN0l9GFyuuK0Y6+Qfq5CnFzWDDCDqusbVW9mri9RUsLJVadrYV53jyfV+Ys3/sf5xti+JNOb3xwBMAr3XtUrqc6//W/+bEQzMHeHSemKU6/On+2izf2cY+zll0cATCLpiqPQsh4n//bzIzrld370GfMU4iyjMw6NqHc704Igb30Vj4tJ/rIXQfLnOeul9n3/G700YDSd6s2z4knxTt799HfBX/k/P5HXguDv/t0IgFFok1mn3Xnx1V/6lvjhlLOu/raIZtD3XnH6CmBtjzujZ+ycc+7+tKdFcIDcDMDaTnz0sRGd8j3fnFniTWccGlFNSmTWzTvWs2zynFOCfl1eGjAe1Zt16nsXzH2dgXZqANvbnRcfv/HvxA+Z0E4NZvOW8yOgbKVsgjptC7CeY8e6c/ckDze5vrm7YhwaoH6d6fVtbB6VQEnuQeictJualwbAdnItctEuE+ahK04dYj68d89V7szdYRTHb4ggPHPutTvD2J+7//LpuZDsDk689rURAIPTFYc5OShFA6oZVl1yXohl7Y+PcPKcCHLmpQHjmPu0JcM7JEE+e8JHu0yYhK44lYr5cHbV+X3M3WESuuLUTSE9QMGWjZc55OEU0tOgempg7ohnsCDI0LIXwArtj4/dGkFOtFODWajerMDBBHlSnZ+Fhz0sgvAgR/5gaLMndxneYcnxHBI+EvoAmzkwVl79E2+NKGOKcWBwnUJLS+Q65DxeKqSnQfWkvG+JJ/nqewGsuOHZ2XzPsTp/QcIHBmVBUKFknEwTPlls4Hz4wxGETzjeDaPTFad8JSbHJfRheNpk1if3sbIvryShD3C4NIedY5t7p2tpjGkz09iw/fG+zgIv17y5hA/A4UoYJ52+gvF9Jp5BVxwmIeEDsJ5kDpxtm/u3vCUCYAyuH6xQCbmZvtO1cjNUrJ7NWtWb+Vo2iK7Q/jh7EvoAW/mdH31GRJlTjAPDWq25CiVLumFkUZ2vnRqMSlecCiVz4M/f7dkRZeYhD4kAGEWuHQ7ZTF/u+ntOnxNnu7ciN0PFbGkyvr5BdMX2x4fJIuHTx0sDBqN6szI9C4Lvfs5ZEYVcFoHaqcG4FFrWZYXxMZt7ip2uBVhNz9z9bie+LaKQS9ezvmKcX/qlCICh6YpTuBVy18dujWBu5u40pIq0iOrNjPVV6mw6yOb65zrAxjOwRLJxZ0FQuHRBsPs+6LzDc2pzf2suqxOAjPXN9xfz46TA6uQ5Ecythu4+kKlsijIYRl8yv6Qx9BmFdPABmFtfrj6XQnqdcWiIGnbGNeTkPkn4ZL0Q9NIAOF1fMn/3fZD1abqzz44AGJVCy7Kt2FUmm+r8PubuMA5dccp1WOF9SYX0xncYhq449ViSm8n6cISDUjSiiqFVm8xM9U2KB2xdkE11/sKA/14AVVoxmZ+9v/N3IgA2le1VFqzvkGR+J+GT011nPQmfx7/mNREBG9MVpx5rFN5n9V6XmwE4XDq+x7jZ2YDPqetZn751CBSujjqYZLPWgiADyxI3m56q7ZFVdf6A/17AAao363BYZf5CSafq3vKWCAAYtIvO1JLuCff9rd+KCICOg3P3nLue9byDnnbppREBm3D9YEWWnKotUi0HAuCAOtLerpTLzwiJm6yr83tYEMB2nLyqyFHvhCThk1UxTs/pK+M7bEdXnIodSOZnX53vXnIYnkLLOpSezH/YwyIARqG7eLnW3ODMKi+nMw4NMHVmeEedoBpKbgmfvv75fb8XwGZUb9ZjjHfCmEr73wu5+2w8g644haqpMn+fuTvA+qeVPhPPXHz4wxEAQ+gUWro+tEyr5OsLy7vpjENt6tisVb2ZlxFO1S4U8ef61KdGENZd5ADUpoZkft//3r572YHV3B7PYO5eqFXmuUnCJ/uuGebusDFtMiuxQjK/U2SV28aNQnoYl6449UhzHbn/2Sqkp3JSI4yvpYH0RS+KABjaHQ+MgLKskPguos39ZZdFAGwtKbTU9r5AfUnvvuR47iT0AU63QvF99m3u+yjGgc0l63NdcQqVjoM9+fr0zzarO8kXFNJTueI3a1VvZmSR2OgbIIc8QZV7dX7fv+vVV0cArOP4DRGEM1wtV4dSC3ge//gIgKE5WVuxEk9eSOgD3KXUuXtfMY6EPtCqvmLEnhx2dpuzfZyupWJSIwynL7ExcoV9ES8RCX4YhOrNAvXdH9KzICiiOr+vGOeKKyIAVuUUbSVWqMxfOHlOBCHLubuED4zipK445Vkxmb+nhDb3t9wSAbAV1w+Wb8VixCK6ni17L0EFih9eOwt+ffPn0TepHyPxkfz5Zrl5o50awCmPfWwEofSEePq//9JLIwA2pitOeVYsxFk4lnbFKCXh4/QVrC3tiqM4p0C1dRa4xz0iAOA0q+ZmSmhzv2DuTiXUwjCMvkn9CJUuRVTn96lt0QNTUL1ZtnUq8xdKqM6X0AfoFuIcopiuGE7XAnQdNjYmhfTF5Ga+67siAFbRWZcrtCzPGrmZYvJuDkpRqfJT3zfHM2iTOYOpTtXu6kwScqzOX3A/CtC6dYtUkhlJtgmfkdv7Q+10xanQIfP+ItrcL4xQZApQlDW6JhTtda+LAKARtR4guuc9IwgOSlGB8jdrtdaZ30SnaoF2qN6s0FFFPOfGs0QqOGF1SaGdQsvCtJLMX1BoCevRFadsa3RNKIpCeqBlfXP3o3IzJXQ9W7jyygigHuVPny0I5jXhqdqFYqrzd33yggsiAmjMGm12qvCN3xgBQOUGSObnmvC54vLLIzpAQh9Wkm0il9VskMxPr6jKtuvZLrkZ2JyuOBU6KjdTSpv7vn8PhfQUztYm23Gqdqn3vOhFEQHrUnhTuCHaz2Sc8On4RMaVQwBD6Uvmr9IavqTuGJdcEgGwFV1xyrduXifj6XBvbkYxDqxGV5yypYWWKxywujL5My7qz1wrZApXVzrcgmBafdUqU9zlV0o7hj4WBLCSY7dGsE/1ZtlWWBB0qvMz5vQVbEFXnPaUUp2/8NKXRgDQkDSZP0VeZ2rf/d0RADRiw+tLLknm6jnP3XtzM07XUrCi0yNa7cxMtcrR3I8Cm1G9Wa6hWiDnflh1xJb/AFnaoDJ/IX2HZ12c0/e+uuaaCICVKbQsR18yv0ZPeUoEAI3Y8PqSTv6tpK5nC/YrKJhadjZzxRURHDBV9WVJ1fkLb3xjBAANaGVi3JfQV4wD69EVpxxbJPPTuXqne0bujh+PAFjm+A0RUJ5t7iIv6T1u7g6b0RWnHrUWnNfYDYJmFT3EdjbpVG9O59JLIwgzDvi35d4689nPjgBYmQVBPdZ5P5TW5v6d74wAWEXnOy1HWrYVuyYUV53fl/DRTg3WoitOwdaZuyc5uOyLcWrdqICR6GhZsA1bIC908m+5dz3roxiHQpWd/k4mghYEE+kb8FYc8Mdw9nURlOTVr44AoCJDtUAO2W/SP/GJEQCr6BRa3iue5G/DFsi9Skz4aKcG1GiLZH6R+v7dJPRhqc56XFeccmzTNaFEinGoRNmbtUnCx8mrmUzcbqCKTfmXvjQCINWp3rQgKEeazF53wlxadX4fCR+gNlsW4hS5RnO6FtajK06ZWkvmL0jow8o6uZkz40l51h37Sut6VnOhEU0pewqdLAi0Z5hABknozsKvhOp8CR+gdq2OaRI+sLrPxDPoilMIp0pP8fsA1G7NeW1xbe4X+hL6cjPQq9MV5x7xJG+tdU1YRiE9Baqq3lH15gxc4r05CR+gdi0sCPr+HS0KoJ9pYx02KVIprTofWJmuOIWSzL/Lt31bBMBpSijAoGuIrglJ17Mi9O1RyM1QmGK3Ny3wZ5DxAFfE58FLAzZy4vwIyNu2LZB3FVmdv+B0LaxGm8zybNkCeZnOSY0c6YwD1GyAZH6RXc/6fPjDEQCH0RWnUAPkZoqYuy9cckkEUKZ6UiSqN6c3Z3K61D/v48cjCGefHQGw7/gNEVCOsZLXpSR8+jYuJPSBGgzVCSapzi822aczDnQUk8DlcC0VHyqkB2o1UNeEzru9lEL6l740AiiTenZW0zdxnbNFTpLwKWaB+IM/GEG47bYIACqzwTuiqlN2EvpwGm0yK7FhMv/kORGEYubuEvpwpHcnxRcnHxgB+RqyBXKpbe51xoGj6YpTniFaIO8qtrCy71121VURQP6KHWY7C/wSe6mXLLOJbTEvkb6XxjveEQFAoQZogVw8CR+gNgO2QO4k70u6A+31r48A6HNx0hXHlVUFGCiZv6fU+pW+95liHKA2G+Ypqmlzv3DxxRFA/sqtiXHJ+XRyO1W7q9jq/D5f8zURAHtUb5Zl6Ha/pVbnS/gAtdEh4JTv+I4IACq1TdHhveIZisrNXHllBEBKV5wCDdk1oWR9nXFcU0UhqkmBu+R8QhmcHiq6Ol87NaB22ywIzoxnKCrh43QtLKUrTgW2GOOqqs5f+NEfjQAo/vvcmgG7JhTvq786ggMk9IFSDdk1oUfRnTMUoVII55U4XIanaqsgoQ+9VG8WaOgWyPeIZ4mcroXlksI6hZaZk8w/3ItfHAGQ0hUnc2MnrEvvgiehD3uK7mDIKdvmZkrOxzkoRaHKnUZrkzm+viRN32A3g+Kr8yX0AQBoSalt7he0U4NeCi0rsGUyP72iqjgK6WE1uuLkbYwWyMmfeXEb+GefHUG45JIIIF+2OFlOReG4zjsvgvDIR0YA3MmCoDxbLgg6p+1Kq86X0AdqMHTXhBpZKwGlmaJrgkJ6qIOuOGUZoQXyu5M/8+I+A7fdFkFwTzkFKHKzVvXmBDI+VXunkqvzF266KYLwgQ9EAO3SaqcwaSJjgGR+lZ0yJPRBV5ySjJXML706Xzs1gDopSAJqM8C4dnEyV69i7q6QnsxJk9BPYnl8XhrQpXqTVGnV+QsSPgBHKrJ15gtfGEG4txYgtK2TuPWVyNtEXROKK6TvK0iSm6F1Ja7DWzVGC+RdxXc962O/g8wVuVnr5NXISjhVu1B6dX4fLw2gFGOdvKqBdmpwOF1x8jZRMv/YrRGU5LWvjSB8uoasFWxBoWU5xpy7J+/1KrpnyM3AaXTFydgILZCroTMOhaljqFW9OaxCJ6V/VmJ1vpcGnE6bzHKM+a4ovc39gtO1cKfOd9jY3qQqqvP75u7velcEAI1KcnJFFuOYu8Odilx/c5eBxrNOPq7U09avf30EkL8yUyV/Fs+genNAfdWWmU5a0z/3u18XQWmuvz4CgIKN+K4octNeOzW4U6f7ybnxJD9Tdk2opb3ek54UAUDGJuqaUCydcWA5XXHyNVIL5Kp8x3dEAPkrc7P2c/EMTl4NqO+klEF+XOefHwG0rVO9aUGQr5GT+S8/L4JQZHV+H+3UgNyNOE5Vs2bTGQfuoisONcnx+i/IgUNS7aqh61mfH/iBCCAvZU6lkwWB9gwjyrjaspp2DH3+2T+LACBDI286vuL2CErXl/BxupYWudOwXE5e9XvPeyIAKMDIhZZVtLlfxtydBnW64pR47Vwr0vtqzd1Xc9llEUBeqqh7VL05kL6KcKdq5/GqV0UAUAALgtU5XQvkaooWyLVU5190UQQHOF1LY3TFKYj55+b83tGimgou2E5yJ3mxFNJTiOK2OZ2inVCByfdiPx/aqUHHCR3C8zRBMr+q6nzt1ECbzFLMkJDunNwoyXlJz373YQGlGDjXU1XXMwl96NAVJ1MT5GZOJqeqi567pxTjkKHyUyWqN4dR6qnamv78nUyjccdviIDmVd3mfkHCByjBGHPTWqrzF266KYLwhjdEAG2oKmFbswmS+dWT0AdyNMHYdOzWCPbVVkjvoBSZWbpZe8cdd+w84hGP2P3MHtt5+tOfvvt57n6g+37N4q9FvPh7i79e+cpXxq+GESQJn6IXjH0LJi8NIDfpgkChyfokfGiINpmFmCiZn1bnF83pKxp3ZXLSSlecTE0176ylzf2C9Q2t0xWnTCOMXdWdqn75yyMIZ58dAeRh6XD76le/euenfuqndj7/+VMzrI997GN7z4P6fs2JEyd2HvOYx+xt2t5+++07b37zm3euvvrqvX8+hM5mXE3V2XPpSyr0JR8Y3zOfGQEA1ZDQp2GSOxzUSd6XfidamhRTjENDLtEVp0w2Io+mkB4o0QiFltV1PXvFKyIIt90WAeShN32yODG72GR9+MMfvnc69gUveMHOG9/4xvinpyz7NRdddNHOy172sr1fc8YZZ+w861nP2osH45Lz4RWcVEgrfJ5yRgSlet7zIoAGqd7M35Rt1Gqqzu8joU8jqvvu1iodkyTzVyOhD+Rsyrl7TV3PFrwHaZSuOIUw39xMXyH9u94VAczv2Mme/saLjdjFpus73vGOnXPPPXfvZOzrXve6nbe97W17G7Ob/pqF/X+2sVftvjWefNf/j6+4/oad7/mUSdQ2nnbppRGd8skLLth5z4teFD/l7Yfv81U7v/OAA/2WPrezc/kfXxE/zGvxfVgUMawr/fNYuOLyyyOCPG36eT/o0i9+WkSnXP4/8vguc5cpx6dLH7r7eTgrftiV0/t+qPHd2E4Jth3fL/3C3e/yPeOHhVt2x/ePG99zM+V6INf3/aaf9b/+67++838lhc3Gd3I3xtxdbiY/j3/Na3bu+1u/FT+dMtrcPeP3/VBz95JyZbRr2/E95zwrd5lz7l56bmbKvBZcdtllO+9///vjp6ONtlm7+H/7jGc8Y+e1r33tzoMf/OC9/8zC/j/b1LHrdv/PgdNXJx7p9NVW+jbPt/jzmdqi4uv4B+KHhQft/s9/YMQzu+KKK3ae9rTTX2grWVS/pqcbCvozoU0bf95Dzt9lDkjfGYuK85Gq84/duvt/PnQq3vPw3c9EJncdbvx5L/ydS5u2Hd/N3Qsw8dzz2O9FEE5+eQQz2+qzno7vxnYyt+3YvpDrd5kDzN33mLvTkm3H905u5i/vfuzvFTF5mHrunvF6zvhObZZ+ta6//vqdT33qU/HTzt49tOmp2GW/ZrGR+7jHPW6vLfLBjdpBaJM5nL6WOIW1eun8+SefjyJppwbkaMo2arXSTg3I0cxt2atslf2jPxoB1KnK7y1bSa+oquIKs77Efd+aCCrSaWF+oNsVjaqtzf3CiRMRQF56tzr375r90Ic+tDs3Obl3YvY5z3lO/NNTlv2axUbtN33TN+2dtN1vfUym+hIzEu958NKgMZ3JXjIZJAMzJ/OrSPh4x4JCyxKMXVjSwt1nL35xBNAIdxrmZ+JCyyoL6fvMvSaCsSXr7k4hBvNLx6GJi8Jz6Zqwlcc9LoIDHJQiA0vTJS95yUt2nv/85+/c7W532zsxu39C9pWvfOXORz/60b2479e8+tWv3rn88st3zjzzzL1Ttou/Fhu3Q+hUb1oQbK6CU7V3Sj4HVVT59r00VHBSsV9JFgAWBAUYuUVMM58BCwJqV2uythZzdE2osTq/751ofAfmZFNxGCOveQByl+Zm9tre1+C88yIIPXfZwtSWbtYuTs5+8IMf3Ds1+7KXvSz+7s5evL9x2/drFs/Fzwf/WtxtS2acqi3PP/gHEUB9nnpDBORphmKRaqvzd+dFHYpxgLlkkMyvpjhHq3saoitOgYxRwzF3pyG64mRmjkLLVA1dzxZuuimCcPnlEcB8DLkt6hvYS56411id3+d974sAgKJ90zdFEJx8oFK64hRogjVBujlbzdy9L1HmdC21Ssb3Kloi1mSuZH6NXc/6mLtTM11x8paOP//n/0TA2voK6c3dmVlRm7WqNwdS+anad9dSne+lQUssCPKWvjdmKvCpJuHzb/9tBAAzyqEyf6GW6vyFpz41AqjczfEM1W7KsZYH3CeCUE0xjs44NMJYXqD//t8jGE/Vd5LrOkFmyjpZ65LzcRQ+MKVVvBfXdLLWS4NGabXDnpZO4Q10vz/kpNpuJwyrpoTPi14UAcCMZiq0vL6l612drqUFuuLkJZdCy5rojENmpMNbU+HA3qn8qqk630uDBnS+wxYEeZnxvfHy8yIIVW/8PP7xEUDFdMXJy0yJ5qoLsszdaUVSZKHQkuoppKcBnbHc2M6+mtvc/+RPRgDzM+y2psLqv6rbMSxolwnM6ZZbIpjeK26PoEbaqdECXXHKIhE9DL+PwJxmLLTsvOcV0kNRjt0awb5z40keMrmeqjoveEEEML+yNmtVb26nb9LelywmL9/0TREAzOCSSyIIFgTj0U4NmMrc3XZqrs6X0KdyuuJkbsb5ZPU5OusgoFVJh6Tqr7t59asjgGnZ7myJJHA9JHyoSGeSp01m3iZM5lddnb/QVzBlfKcmtXU7qYl1wbje854IAGY25wZjbfOAKYuaYA664uRr7kLLxOfPiaBWL31pBDCtYjZrVW9uqfZTtTVX5y+o4KRmFgT56nt3MKyzz44A6qcrTsamnmvWXp1/0UURHOCdCowts2R+ExRaAlPIrNDybmnL7NIppCcT5aZMfF/W01j1fHUJH+3UgDnM/O6o/k7yhd/8zQigLtUVztVu5mT+7bVX5y/8wA9EAGXTFYdD1V5IL6FPzVw/WI6JCy2r73q2cO21EcB8ihl2OwuCe8WTo/VVV9Z2UrOFBaLTtcDcjEPDc9qBVuiKk48MTnimCZ8za6vO73PVVRFA4XTFyVdaaJnB3L3KzZ6v/doIACaQY9eEGgvpL7ggggMU4zAxNTIt6DsZVXly+KfOiqAmfX9m2qlRA9WbecplQVB7dX4fCwJqJJmfj3RtcPnlEcyoxup8p6+ABn3D/SIIx2osxnnxiyOAerh+kMM0k6f71m+NAOZRzldN9eZmWjhVuyv9PDz/xghq11h7a4AqSehToU5XnBba3JbqAQ+IYDpNtLlf0JECmEomhZa/fEcENev7fdU9ARhLhl0TqvXc50YA83B+qXZ9k8g5TkYxDC9kKqN6M2OZLAhec/8IQnV3ku/7hV+IACpR40nJGuTYRq1mfb+3inEona44eVLIPa+LL44AKnHPeMK+FrqeaYXMzMqZVtdabT22dECpdLOvmep8CR+gMS/6XAS1e9azIjhAq3sqoisOAExoptxP531fa/FWX2ccc3cK1imKPiOezCvjQstqC+mvvTYCmF6xNZCqN1egcr5OTtcCY/P+yIPxHhhaTm3UWrmTXEKfiuiKU5CZ5u5N5+qcbqZkrh/kKPeOZ+2crmVGRUyjql24j63xnvbVfm76Fl0SPhTq9njeqZXJX+5+93cjmF8z1fl9vvd7I4ACaZPJUZJ3frXV+X0k9IEh5ZwPqLlLXl8xjoQ+MKSMcvtpbuanzoqgRidORADTKjNtonrzaC1u3rX8uZDwoVAX3xBBUL2ZiRe+MIIw44KgmTb3C05fAWPqG090TZiGTglUoqmiipLIB8znzDMjAKhbOgd4/o0R1Ohxj4vggGuuiQDGU+ZmrbnQ0dLJ+r3vXX8ypqXqfAl9YEqS+fORfKNA2mRmKvPx5MNnR1Cjvveo01fUQFecPM1dINJKm/uF97wnAiicrjj5yazQsvnDFZddFgGMp4iht7Ppdo940q9vMH/72yOgWhL6wBAUfsxLOzUqILlTiJmT+WnC52HXR1Arp2upgTsN81NA14Sq5wV9v9fWU8AQMsvzNtX1rI/WyEygjClTS/fTDaFvMG/wVNTba184SvhQA9Wb+cmx8KOl6vyFJz4xAihT5zta84lJWFXfekw7NaBGyYnrY7dG0AqF9BRGV5xCyANPSyE9MygyLa568xB9FXyNDObp5+IpyV2Y1elL+HhpAEPrm6DOrPpN/e/93gigTJ2uODZr55fhyavmq/MXjh+PAArR4vc0d+nGoGT+9CT0gaEV0DVhofpC+gzzYdTNGaYWNHiqthkWYhRM9WaGMm3Z9bbzIwjVV+f3vbd//dcjgAJok5kfp3zyYO5OZXTFgfDGN0YA5bvofhFASt5Oq3tGVcbUWpvM1TVcVdlkdX5fQt9LA6jMM9JTei36uq+LAGAAma4Rqq/O75u7O31FIar/fpYo05NXnSKtFq42e/azI4DypF1xrr4jAuaTa34/aXPf6ajUAkWwjMi2Z00KaZHAyLw0KESTk7rclVLw00LCRzs1YCg5rxFarM7XTo1aOF0zv0zX/trch1e/OgLInK44sFzf3N1BKUaS/WatNplrSCfq73lPBA1JPh9NVP96aVCotyULgBNJq1vY1+xiUbtMSqUrTl5yLt5UnX+KuTswBHPHvLz0pREArCHjQsuT50TQOgelGInUSS36BvIzz4yA5nhpUIBn3BABech4QdBsdX7f77/TtcC60nHDyc78mLtTgE4xRVJsAc1TSA8MIeNCy86hqBa6ni1ce20EMC6btbXoW+DnXEU/llar8yXdAOr0gAdEEB75yAggT7riFCCjxHHaOeEtrXRSkNCnQD+oFjwvGRda7mmx61kfxTiUQFecvCi0zM8FF0RwgEJ6RpD98Kt6cwV9k3Ttb5DwIXet3l2UqzSRkPl7pJmEz/XXRxA+8IEIAFaQezI/8cyWu25I6JO577spguBOw5nlPmacEc/QzOZP36aKhD6wjYzyu03fSW6vhQnkP11yyfnRnKpd6huTBUJTJHwojOpNDtXq6TynryhMp9Dy7vEETqedGjCk3JLI94xnOHZrBC1I76o9++wIID+64mSmsELLpvT9OcjNMDCp8Ro1XOmRbub/uz+NoAUS+hSk2TZYuSphQZB01mh6c18xDiU5K57MIx0vMlsnNF2dr50apdEmE1bzqldFEG67LQKAI5SwMavN/V3kZhhYcdNrC4KEipvDtd5m1UuDUqjenFeBY0VT1fnaqVESXXFgddqpAZsoMQ+UzA+q1jd3f9e7IoC8pF1xvv5+ETCPdJ1vrpgXfx6MLP+tT3caHi7zavmpNb+Z76UBDMFYkp+bkoviAI5SSjK/5ep8RbYUQpvMzBRQaKlYK/GkJ0UAefvVOyKAZZKuZ51rcGrWN3dXSM+AnFMtmVO1pLw0KERnMpdM9iDVSfi0VJ2/cD8lzpRJVxxYk7k7sK4MCy2bbnO/oDMOpdAVJx+F5vmb+8z0je8wkKzTJ6o3j6DFbb/We+c7EUcB/vTsCIIFwYwU/pTrn/yTCCAjuuLkI10r5JpYaLk6f6Hvz6Xv3QywjLl7nk6ciACgHifPiSA0N3fvY+7OQLLerFWJf4i+QcAmHQsWahTgftdHwPwKKfxpvjq/z2teEwHACiQRyqEol8zoipORgsfy5grpH/e4CA5wupbcWFfnI53/ZZrn74zlrXU962PuzkCy3g49dmsEdPUNAjbpTmm9Or+PBQGwKoU/+dJOjczpipORvmR+pmuFtLvGl7RYsOvdS+a+68wIgq44MyopIWwesLNz3nkRhEc/OgLIk4NTsAKdcRhJWUOw6s3lLPA5SEKf3CXVmxYErKT1NvcL3vdkrDOWm3qwgT/4ZAQt6dtIl/AhIz95UwTkJ+O54X3vE0HLbkq+PO97XwQwvybX07kqqNBS17MlnK5lAHmnx11y3q9v082p2qX+UquJwr/1tyIAWKKgBQGh789HMQ6Z6HTFuVc8mV4hbdR6SficIuEDrCLjufsnkxryJrueOX1FSZyGh9UppGcEzjLVwOBwmnRT/48+FUFrfviHI4C8aJOZkdISwUmHjWZPZD/veREAlE93jSChT850xcmDMaFMac5OMQ6QKq3QUtczhfSMwhS7NE5BHUk7htD3ubC4Aw5TWPFPs3fbP/OZEUBmdMXJg/VCPST0gYMKGxM684BkntAMCX0ylZ52/6n7RwCsxgE6Bpb3Zq3qza7SKm3Ii4QPQPn6Ej7velcEQPNK3JhVnX+KtR0Z0hUnY8aMcnz84xFAvp7/uQiYVomFlknXsybb3C8oiGVgtj9LokqedWmnRoY6k7hkksdECnynqM4/IE3OPelJEcCM3DWah/S0jmR+Ofrew05fActkPnfX9eyAB6lyIEO64jAQn50DzN3ZQrabtao3ezgVuTrV+cv5HDGzN54VQTCpm4mxoGwS+hRAVxxWpjr/LjbXgT6Kruvz6ldHADQtzc30HbzJzMlzIghNz90dlGJA2aZQOskd+ccuC/mVeWkkvDSY0XNujIC8FPBOUZ2fKGARRzsUxmWiwK4JJPx5kRldcTJRSaGl+cIBL31pBDATXXHyVEDOtjOWt9z1rI/DEWwo283aY7dGsK/1fGTfaRkL+eUsIA/npQFQJ8U45EJXnHkUuj5Iu2w8QKHu6XROYEZ/Ifn46YqTiVKK980H7tJXaGl8JyO64syglkLL1jf+HahjIOUMwy1vvvUN3AYB1uHzQk6SSZwFwQxKXhBoc3+45z8/AphWZyw/I55MK036FjoHvP5TEbRKQp+M/J/Wv4+5KmTu/kX3jYBT5GbIRGcdrbCCNcjjJfreyQrp2UC+Xy2XnN+l7xRkoVXzs7klnq3yeQEOcrq+Xh/4QAQwrU5XnHvGEzahLd/OzqMfHQHQvIITvn+YbAg1fUXVQl9uRjEOtCvNzbjqqB7ybmxAHUSJDNxH6mzu3xFP7mJBwAxUb2aqpArvpNNG8xWdTl8B+wrumqA6v8dP/EQEMDNdceYn4VuXb/3WCAASJRXn6Hp2ur7cjNO1rMk0O3e+1BvpLCBV50voA1XqnOZrkXZq5EBXHBiWdmrAMgXN/TrzgWS+0KRv//YIYD7pKfd/d/8ImE7BhZasSLEVa8p3s1b15im+1AzpR34kAqBZFgT10U4NWEjXDaUVcqjOP5q1IRPTFSdT5u5lM3cnB0nhxDd+LgJYVdL1rPk29wsK6dmSk7U560uo+9KzjX/6TyOAeXQmb8nkjgkUnuhVnb/E294WAcxEFxMGJuGzSzs1oPDvvK5nS8jtkRldcWZQeqFl4t0+Q4px2FqWm7WqN0NfQl0F5epU56/m534uAhjfs86IIFgQZKD0RIGEzylPf3oEkAd3Gk6shq4JCrhW43QttMV3vk4S+kDhTp4TQbhYoeUpinHYQpZplE5yp8Vkj1O1g1Odv8S3fVsEML43/2kEsCEbQGuQ8GEiCi1hRE7XMiNdcTJUYl5IIX2/EycigBm4fnBeFRRadsZyXc9OcdCOLWQ5FB+7NYJ958azJU7Vbs9Csp+ED7SrhpNXLKeoC9pVQRu1TreNz8aTrssvjwBGliRidcXJgLl7PR73uAgOkJsBSqXr2XIK6VmRuplSSMAyJq2VmIrqTYagOr9fX/LOooAJdMbyM+MJ27g9nnS99rURwMhujifzqGTj7q/dNwKO9s/+WQQwHl1xMlBBoaV83iH6DkrJzbCCPL9WybH55qo3+768qie395l44qUBrapgQcAR/Jkyg05XnHvEk2lU0jWhk/BRnX8XnXGgTZUUVf/XZGPIFVWHuPbaCAAo2l/9qxHA6tRAlEDidSOdTf6eHEfTHvGICMKDlNIxLtWbDCZpc6+i84C+DRoJfcbmfiKYns44TEFXnLzIDdVHIT20p5JCyz26ni33L/9lBLC6PKfaLVdR1zRgz0x1/hE++MEIwif8BkHVKn6/dE71cToJfSbmTsOJ6ZrQBgl9oNC5e2deoMjrdN7bTCw93f4r50cADEchPRsooi6yqepNCVWm0pfwufrqCAAoloQPUCrV+Ye77LIIYHy64sBE+hL6inEYU1Iw8VStyadVU+4/6Xqmzf0R7PtwhOy2QS3IExKug/L5OsLjHx8BDK8zaUsmdYysopNXqvOPIOHD1LTJzEslXRMWJHwS3//9EQDVq2jupusZ5E1XnJlVlPt/p8/S6foOSjldyyHyT6W0VL3ZNxmvKNkyC9W/h9NOjQl9WfLRsiBgMBI+XYq9oA21LfYVcq3vX//rCGBYiiUyY25XNwl9aENl11OdPCeC8KRPRsByTtdyiPw3a8+MZ+36BmuT8e1px3C0d787AhjX738qAqZX2YLAqb0VOF3LRK7VJnNeFvs85zkRwMgUU7ANbe7X5x3PWHTFYSCdsfz2eHIXxTisIbvhuLOZdo941q5vEuZULVN4whMiOMBLAwCgPIUXe3a6btwcT+4i4cNUktyMrjgTqqzQkhU5sAH1q6wIQ5v7Df3CL0QAp1M7k4O+iXjfIhzGcmZyhP0HfiACGJDqzfnUWJWtOv9oEvrMQTJ/XrUl843tq3H6ijHcGk8YwN++XwQspzMOE+ism3XFmZcijTa94Q0RwOnyS5V/Op6hiepNi+vRdD4/yeeLcHvSp+KqqyIAqmRB0C5zDgZ2YdoVJ7m3iBFVWHyhOn9FfcU4EvpQj3S+VsHc/TfviCC4omoJ6zRoi64JbVBIz4qca8qRyRlT89JgZKo3Z9T3Xa5hQZDcm+ak9hLmFIxNIdx8JHfall5l8tCHRgAD0RUHptf3bpebgTrU+l3W9WwzCunpkd90u7UFQa1J9Eyozt+ClwZQkGNa9fXrm1M4fcWI3Gk4ofS7rDijLWknnD/+4wiAolWaI9L1bAuPf3wEsL30VPuV50fA+D72sQjqpnPCEjrjsAK1kXOzIUYuvDSgTt4z2MABSqI6fzV9c/drrokAtnOtrjgwn3Tunl5bBdtICiUusbE2nW/+5ghC31yuREnXMw7xQz8UAfTLarPWQnxXLQN1xnzODvHBD0YAw+pU1pnMzaeSjTvV+WvQTo0xaZM5j4a686jOX8Px4xEAxaq00FLXszXojMOEdMWZkTV5e172sgigX97plNqrN022pqEKeHVf8iURwMDuiGewIJhRpcl8CZ81OXENZav5O6yga3U64zCSCxVJ5EOHlDY5yAF1qbjQ8uQ5Eey7OZ6s5md+JgLIfbO25sr8vkHaJHwcScJHdf6afvzHI4At3BJPplVxpabTe2vqS/io5GVL2mRmxDqiXf/+30cAI1JEMZ+aCi21ud+OuTtD0BVnHhUXWnbGcmP7er7zOyOAzLZDO5to58azRn2DdK2nnSjbC18YAVAcpyc5jM8HkKFO9w0FX4d78pMjOEBCn20luRldcSbiu8thzN2hHhUVWmpzvyaF9BxC/cwc+r6AWpyQC+3UGIPqzTzUdvJKdf56zDUY2GON5fPoW0vUXPSZXKVAjzPPjCD83u9FABu6NZ5MK92M+6EfiqAOl94vgmBNeAQJfQamKw5kSjEOIa+p0afjGaqt3vQFnFTnc5R8zuihlR5AGyR82MKxNJmvTSYDUJ2/gdtvjyB813dFABStstzR5UnxTWcewdHkE6E8rRVacjQHpVhCHdvU+gZoG2Pkpm/S4KXBhjqnHVVvTqOFBUGyMaQ6fwMSPmxDAdw8fG9JSfgwNF1x8iCZj3whUAJdz9b3tV8bQXiQZCm5bda2UDXdl1wxAR+V6vwNPeEJEYR73jMCgDyknRNU569AOzVG5E7DmUjksuBzAGVrYD6m69kGFNIzopMPjIBxpXsBDczZjid339Pj1389gvAJGxZkfrK2iepNi2pyddVVEYRbbokAKEIDCwILgIE4pQflaKWNmur89UnoMxB3Gs7EfIxl5A0ZyIU3RBDMrxiM63DW11dIf801EdCqbLZDm3hB9C2WnaqdhQnJCrRTYyCdDTWTOAaiOn9DEj4MRZtMJqI4Z0X/7b9FABSvwvmarmcb6ssb6owDZWil0JJhHD8eAa3KN6XSQvWmZOl0VANvxmeUIdwez6BN5gRaXRBI+KzG6Sso11/8ixFUTmHXZm6+OQLY3IWKIyB/TmIDGTl5TgT7PhtPDuegFIl8N2vPjGctnKqdV5LwUZ2/Igl9hmCSxkic4tuCYhy2pE3mTP7SX4og+C5zUN/c/V//6whgQ4onxtdSoaU295vpS+g7Xcu6dMWZXiOFFZ2xPDm0wSGuvDICyGiztrN5do94AvN65zsjAIqh0pqjKBiDOrTyXXZgdHPPeU4EsKI/i2fQFQcyZc0H5ekrvKiANvdb+OqvjuAAxTjNUkMzl0oHZyr0xCdGcICXButQvTm/mk9eqc4fjs4JkLeG5l+dzSFj++q0U2Nbn4sn02lp0y05qW1tuAZ5RLagKw5k7Mykxexv/VYEtCafadGn4xmqqt5MF8falU2u83n6TDzZzKteFQFQBKco6aOdGltI7zR8+/kRMJ6Gkvmq87dkvQlla+g7fOzWCNiMuTvky/eTVd2e9I1+6UsjoDVq2MZmYM6TgsTt6KfPijqnHFVvMjT3qG3nsY+NIGinxqqSQsunpFeaMD4bcizTV6TldC2r0hVnWn05I4WWrMrcHfLV2vdT17PN6YxDyGfaXeuCoG9gNvGenOr8LXlpQDnS7+a3fmsEdUo7J3TuwOdw/8//EwFsx52GkJm/9bciCOedFwHAfDrzhaT4iyPojMNArtIVZ3qNFVrKzaxJIS671EiOqW/C5I4JSuWlAWX69m+PoE4WAFvqKyCT8IH8tHjySnX+dv7jf4wg3HRTBLCcOw1nkBb433ZbBLAip2tZwYU3RBDOiCcMRtez7eiMw64sNmurXXibMGVNwmdNXhpsoLORZvLGwFTnj8D8hVVok8nEFOesSWccKNN//s8R1EnXswEopIf8aXHPJtxV27w80yo1VG/2DcomVPNKPleSihv46Z+OAFaU3JGvTebILAgkfDahnRrkr8UiCgVe27P+ZE0XKoqYn2Q+R1FID2Sok++7OZ6szjVVzctiu6rKTbO+hIpJ97yShM+xWyNgdc97XgSwos/GE0ai8GYkTtdyiE53Em0yp2cTjlVI6LMtRRPjarU4Tpv77ZkHsC5dcaaVrqdb/M4a24fxcz8XAS3IYmjubJqVviBwqpaWSPhAPiwI2JTTtVCWFotAVedv5sorI4AV/Fk8g644I1Mcx6YcBoGyNPCd1eZ+JN/2bRHQAnU0Y3CqlprZ/GEdqjeZgur8cUggQh4aLZzobBIZ2zfz1V8dAazgc/FkHq2stZMDGtaIA1FIzxLX6oozLUXPbKOvkN743ow8pkSfjmcounrTqdpsdT5Xn4kn69FODfLU9/5RKMQ6zFfY0NvPj4BxNFo4oTp/RM9+dgQA00tzM66o2pCEPkCd5GaapX5taE7VlqNnXsuKvDRYgTsNmYz71IZhvsKKjt8QQXjKn0fANMzD2Nab3hQBJHTFmU7DhZbHzRuG8xVfEQGQjZY7VOl6NgwHpZqVx9S7lippp2qzpjp/QH0vDW0+YF4NLwjS6nwJoAFZELCCorvilEhhBety+grISGfekHTbYw0/+qMRwOpO6IozrYb3BuRmtvCEJ0QQ7nnPCKhZlnWSxVZvOlVLy57ylAiALDS0ILAAGJCEPuSl9WI41fnDUUTMEdxpOLGWT14xHIX0rODCpCuO9fPEWtob0PVsOFddFUG45ZYIqNns26LVLLidqi2ShM+APq0cltN1FgAmbdNqaEGgOn9gr3lNBLCENpnTkcw/jeTiFvrmBYpxIB8N5Y90PRuZuQNH0BVnRIolGIpC+ibll1optXrTqdoyJJ8vycUteGlwlM/FM1gQjMiC4HQSPtv5x/84AiA7rRWDKvSCyVyoGGJe8kdsqi83Y30I81AscbrPxpPNOAjYHFtVQ3CqthxJwufYrRGwGZ9zDvNn8QyKI0bU+ILAZ2sCb3hDBLSu05VEm0woR19CH5ZRLDEeG2na3I/NhhEH6Yozn8bypp1DGrfHk83ojNOc2YfntJXV6+8fQUmcqqVVfZ9zC0+WsACfkEIKhvbc50YATKZvTtX6GuPmeDIcCR/2JddI6IozIhtpDM3pWiAD2tyP4J3vjIAWZFdL89ykbWb2nKqF01l4sk/1JlNSnT8sCR8gA53NImP79qxVIT8tfi+d3B6f3Ay7rtUVZ14Oc7GtJz4xggOuuSYCajN/6rz06k2naovS+Xx9Jp5sTkIf5uXkFVOR8KHHO8+PgOH5zqnOH0PfHMHpWmBiaW4m7boHUBy5UKbyYz8WAbVxzmkbTtUWp5PwcW3TOCQXSaneZGyq84fXV4wjod+84zdEEJ4kuTod6wyG4rNEH11xpqHQco/N2REopId5yYWeouvZ+H791yOgNvNPv0uujnaqtnyq84ch4UPCZGxCFgR7Tp4TQZAAGsijHx0B9HOn4YSsMxhK32dJQh+mYSzf05k/JF33GIi1IokTuuJMR650j9zMABTSNyO7WsliqjedqoW79C04vTRgHo2+i47dGgHDet/7IgAmZePsLrpzTOPSSyOgRe40nFC6TpZHYkgS+iQuTLri2DibUKvFObqejaNvfKc6s26NFn3yyqnaajgBOBCLTA7oLABM1qbT6LtIdf5I+hYEV10VAU3SJnMaTsIspThnJNdfHwHA+NxJPqJXvSoC6NIVZyQKLZnDNddEQC3ySq+UUr3pVG3Zks+ZJONA+jaITFba9bl4BguCkfiOLSfhM56LL44AmEzLaw0FX+Nw+ooDLnTSahp9c3dF/wztJS+JAJiMQsul/qa8+3iOH4+AWvi6bCIdgN/9bhPsgvzN+0YQVOePyGSlXX8Wz6AoYiS+Y3fyGRuRhD6h041Em0wom3ZqLKNIgikk8whdz0b0hjdEQHN0xZlHw4WW6WGN//TJCNieuXv1shqi33j/CHL25z0lp094QgSU4D9ZAIyn76Xh5B+7LLwnossDY3nPeyIARufk1eFuiSfjMHdvU3J9hK44I1FoyVye+9wIAMalzf3EFNJXZdbN2vROw+ckbTOzs1i4nn12/BBUNMDhLEjbpHqTOajOH89FF0VwgEUBMIGT50Sw7454Mg5zd5hO64WWTnCPRyE9u67VFWc+Ci0Zy7XXRkCN5k2fl1a9aeFahc7nLPkcsiUFDDANJ6+Y2plnRhDcj9K8t58fAcOy5jic6vxhSegDM0mLcdIDHQzM/ALGYd7ElC64IIIDFNJXw1mnVfUNvNpNFskJvxmYuDTFnYbMJqnOl/AZ2O23RxBOnIiAVhy/IYLwFN+xaVhzMDUJ/fboijM+hZYdx26NgHH0FeNI6MPwzJu65AHHZX1YrXmn4CVVRfcNvE4w1UF1/vhMXGB46ffKZK1Tnf9O960Ny+krEu40nIg1B2MzhwBmoOvZBC65JILwIDsoTdN6fBrmVR2uqBpY3/rwmmsioGRZ1UtmW73pVC2sR0IfmEFanf8kp/7GpxgHhmW+1E9ueVx9CR+nr5rhTsOJKLRkDldeGUH4hNMKLbkw6YrDRBRa6no2h6/5mggo2Wzbo0VVVDhVC9uT0G9GZxKmenMa3kuq86egnVrbtMkcn/nSSrTOHIGNI2BinXmEfcTh9c3dnb5qlq44I1BoSS5uuSUCSpZPiiXX6k2nauuUfN60YxiB70m7kg0yC4IR/NZvRcChJHzG8eEPRwCMznzqFIVf41P0BePpyyv5zjGX48cjALam0HIlf02R7/AU0lfJV+Uwiwm1U7V1OjOeQTuGEfR9T7w0YBiPfWwEHOSU30S++IsjoCWdwjZtMqF+5u5NuFBXHOakkH58Evrt0hVnegot96SHNv7rJyNgWH3jO0XLZph+/f0jyEnfRq0vQR3uEU/GZZIC0/BdY27/4l9EAGysr2uCItF+2tyPw1q3TbrijC/NLZm7M7V3vjMCgBnoejYdre6LNttmbXqS8bmfiyAXfW1qLF5hPRKMbVK9yZxU58/jRS+KAGB4J8+JgOk5fQWMKTnJrevZSJ74xAgOcNdm1a7VFWd8WtwvJQ84I63uizbfVyf36k0959uiOn86Ej6wHQsCcqCdWnPSBffbz4+A4WhxvzrV+eNx4g/GZ+5+p7QYx8nuEZ19dgThv/yXCAAoVl9uRjFOsdQ59On7QFu0VkV1/oQk9JviTkNmpzp/OuZGTTl2awThKb5b4/MdYw59m0jaqdVNV5xx9bW4507p/MLcfUS33RZB0BkHtuOg1+HkA+fjs1ms+abhuVZDLzZq+z7QKh/rpjp/XF/0RREAW0vfUVr0H0pxzoj65kaKcerlTsPpWX+QC+3UYHMXXBABfTrzCV3PxuP0VVMuTAsfkqJmRqDQ8lCuqBrRtddGQOmyqZnMpnqzb6NWIhy288Y3RgAMzgL7UGm1PgNL778688wIgLU4eXU0d5JPR0K/GbriTCAtZJNfYk5pQt/pq3olhQ9XKbQcn0LL0+l6Np2+wjCF9EXS4OYg7Y9hHH0TFgmfKnUmX6o3x2dBcBrV+RN717siCLffHgHV0YVkXO6rPZqV67wk9GEY1sGn6RzcMN8Yl4R+s86IJwNRaElu7GFVYZYlb7bVm9oft0V1/rwkfOpkY2xckjvkpu90iLsNm+BOw5FZbHedG8+gOn9k2qnB9vqS+XJMzO39748A2JhCS3JjflEFaZZ93/d9ERwgSVK3pFOjhM/ItFNrkjsNmZrq/Bmk8yV3G1ZHQRs0yOmrJuiKQ47MO0b2qU9FQNWSdbBCy5HZQ+jQ9SwD5u7FyWOovkc857LYMHrFK+KHA1Qk1G3uzx1O18K60u+MBQE56JsvWRTUzZ2G47MOIQfmGfVLEqcKLQfm5NVqzCum1VeM83M/FwGwEXP3oymkH5+DUsWbZbO2U72ZnHCcXN+GUd+HG9iOl0b9VG+SA23up/fOd0YArM2dVys5eU4E+1Tnj0/iEYalAKJfcqJb17MZfNu3RUANrs31+sFamLuvRD4wEw5KFWWer01O1Zs/8zMRHGAC3SYJn3l4acBq+gobJFHJxROfGMEBinHqpU3msJy8Wkmn8EZ1/jx0ToDNmbuvpFOcw/D6CumN7wDls69VtLZrHBZJxO/8zvghnDhhAt0ILZ5m4qVRrU4SVfUmc1Gdn4cf+IEIKJ3v0MTMlXqpzp+JhH7ddMUZj5NXGzt2awSM69prIwDWotBydfKC0+vb11JIX4y2p+J9J/oe97gIqF1nIao6fxqKIWAz7qvdmOr8mVx1VQQUz52G0zJXIjcPfWgEAMPrzCt0PZtG3921inGqcGFaaKkrzrjkZlbmiqqZ6GpZjHk2a3Oo3uybgBhcYR4WBMCA0oSP6vyJOH0F61PlvB53ks/jF34hAmqiK87I0pNX8k3kKP2c3tuuXg3elKyHFS+PTKHlcrqezaMvN2PdWYQ2T9b2fTgXE2eDK0xDQr9KnUmXdd64vLNWpzp/Otqp1Un3kfGocqYEfXMOCR9gILqezSidu3/awqkG33pDBEFx24C0uKdU1p1FmH6z9r5/PYIwdfXmYlHZ9+GU9G6T6vz5vPCFEVAN67rxSIhSCu3UmuBOwxE5eXU41fn5kPCB5fqS+XJO5EghPazHfbWUwrqySO2lWvoWlT687ZJsnM+//JcRUI3k++ROQ+aiOn9mr399BNTgh+9jQ2ZSkvnkSju16uiKQ84U0k9ITrQ+1r/T8f05VKcFt0Me0+lbVyrGyV5bW1U/+qMRHLAYVCVF2nVuPIPq/JldcUUEFMmCejxpoZEFATn7ju+IgCq503A4NroondO1ZUsSpgotB+Tk1frML+YjoV89XXGYi8KbmckdFmf64frRr44gTFW9uUiGvPjF8UN47Wtt1EJOLr00AoqUVG9aEDArbe7zIuEDDKCzmaQ6f1pO18JmJEuPps39vK68MgJK92O64oxHi/u16Xo2M5/P4kyfSn/KRRGcMkn15mIB2Vf1+w//YQQQJHymJeEDR+v7TphwkTtJyWr8zj3OjyhokzkcpxK3J+Ezv77EJcCWOq0zGddXf3UEB8jN1MGpdeAghfRZa+Pck3tqWUKrpwxJXBapc6ehBQFzU50/L+3UqvHXPntTRKeYO43I+uRIunZk6KUvjYDi6IozDievNpLOL47dGgHzed3rIgD2aHG/GV3P5tV3UEpuJlv1T8f7PnyLRIjJMru0Y8iAlwYcLi1gkMzfiA2mGfisVuG/3ve8iBid9Qkl0BkHmIKuZ/P7xV+MgJL8tq4407HepRQPeUgE5G76zdonnr4JM2r15rOfHcEBv/IrEiGQmwc8IILwyEdGALCZdHPWydoZ9M23JPThFN+FzanOz4/OOMXRFWdE6ckryXxKoZC+Cn/lttMrHRQtj8j+wmp0PZvfW94SAbmr92TtIgHypjfFDwd8/ddHAGTj+usjCB/4QASUwp2GE7Ig2Izq/DxcckkE0DibW4PRunUGEvrAwHQ9y4TiguL9z3tJxozCHf2UTCF9MeZd2o5Vvbn4sPUlQPoWlaA6f37aqUE/3wNKlyZ8brklAopxVjyDjbGRSI6uLslButdwJt/xHREAh1JoSUn6Pq+KcaDbNeGyyyKAQikezlJ96ZZlG7USICyTfAskITPhpVGWpLWOVjvMTXV+JiR8AOr0+tdHQIl0xRmJk1eDUkgPG0gKLRnJ4x8fAUd5b5of1PVsHg5KFaGubanDNmpVM7LMufEMqvNnop0adKXvNIVHlMjntlidJKk7DYfRtyi2VqEGv/qrEZA9hZXjuFUyYSvmGXnQlbAqDqQASzkolZ1Zh+wTSTHnVpZt1C4mGZIfUIZf+7UIKI7qTXKkzX0e+uZhKjiBDXW6d6jOz8dTnxoBpdEVZyAXXxxBULC2nuSE9/E/j4D5KaQvgvXuSPq6JthrWNljdT3Lh9O12aujvuawE7VAOb72ayM4wEujSKo3B9D32bcgoBYqOIsgSToSn39qIeFTDXN3cqSIYEbyqXVwWh04ym/+ZgTkoPwp+bKN2gVJbVagOj9zP/uzEZAr1ZtkS3V+PiT0i/TuZI508oERMCwJ0bW4kzxzihHKoCvO8BRabi3NzZi7z6jvs+t0La167GMjYGO6nuXrFa+IgByUv1m7bDHojgVWJOGTuTe9KQKKoXpzGOn7TTKf2kjoZ+/iGyIIFtUjkcynZH3rbgl9YAOdzVmF9POy/ixO5zuUFC8zEN8NSqaQPmuzbtZu1Wrn4Q9fvgi0UQvl8tIABnLynAjIg0UtMBTV+Xl56EMjCH/1r0ZAjjrfF4WWw1CEtjVtjzPTV0wmN5O125L1r+/USBRark/Xs7yZw2SjvJO1i4nBYpP2wx+Ov3HAIglooxbq46WRNdWbE7EgWFsnGak6f17aqYHP/EjctzmzP/7jCMJ/+28RkCPfl4koUlubrmcFeOpTIyBHZ18XAcP5rd+KACqiM0625pumb1K9udioXbZps5gIS2SzKdX5efHSoHUqlqmVxGVZkiSpBP8IfCc2kxSGHbs1AuahM05ROmtdJ6/GIT9FjW66KQJohPtqqdXznhcBOSkn5bLYqFm2UbtYHJoIMyDJyAy8850RkL3ktKJWOwNwmnwQqvMz1Ddfk9AHqI+5TLY6XXFcG7E9cxlqpZAeTqfQciPvTfOEup7N76d/OgJyUsaW1LKJwMtf3j9xgDW9/LwIgur8DNz97hFQGsUOI/Cuo2YS+llyp+EI+pL5Ck6phYR+OSRIh2cuMxxdz/JjLVoOXXGAbfzSL0XAXGYbtk8+MIJlFsmMxeJu2QJvMVn4wR+MH2A7r7g9AvLRl7x861sjICvJgsCCegSq9Qfj85mBvoSPzziwhk4XD5tPefi3/zYCSqIrzgicvBpM5yQ4eTB3pwV999UqtNzIY3U9K8MznhEBcxlls/ajH/3ozrFjx/b+uvrqq+Pvnq43Wbp42T/5yac2aJdVJt773qq6oFXPfGYE5Ez15pb6Fr4WBJtzGrAMTqRkR3J0BD7ngzHXyNQ3fVMEB0joA+tI7iQnU+Y02dEVZwQXXBABVEohfXYGX+becccdO9/yLd+y85nPfGbvr+///u/f+3u9Fn/4i7++8Avv2qC98sr4hz0W1Ymf+lT8AMNRnZ+pvpfGstP2zMIpRbKXJHxsQGVC4V323p3MjU6cHwHDcfJqOKrz8/XnXrzZ0SZzWAotB3XSHcp5ktCnRfKPw9LmvgyKcWZ17OSuiAexOFV78cUX73zgAx/Yudvd7rbzjGc8Y+e1r33tzoMf/OC9f37s9/YeOycfvcaAt0hkmOwysv3P5p0WL5GcEj+5/e8Zit/nww31v2eqf6/d/54j29xzuL4FgY2tje3dQf6hU/EojGGHK20MW1WD/3tOPFJCf2vp+G5s30pn7j6WIb5fxrBp1PrvNbKTXx4Bm1lsWKWJTeP7xhbJ++MfiB8OY1ylFmN9dnb//8rNbCmdu9uf2Mqx63b/j3GyPt7Hgxol5fJlX/Zlexu1+z70oQ2zpIsJ7uIvAyFAGSTyh+fk1VbcwwZkwemT4S0W4sB2fI+29/M/HwFDUBgGA9FSfHj2J7bjMwlHGuVk7Qtf+MKdt73tbXs/L07WvuAFL9i56KKL9n4+qoXAY3b/OnP3r/+y99Nyj3rUo3Yuu+yy+Am2d+kXPm1n557xw8Lndv8661SYhdz+9wzF7/PhhvrfM9G/1+v+6L07D7r9+viJTTzt0ksjOuWKyy+PiE1d+sW74/tYjGGHK2wMW1mD/3su/x9XRMQmHv+a1+zc97d+K346xfi+nUsf+HU7O/derBxHNsT3yxg2jVr/vca0+3t2+R8b37eRzt0/ecEFO+950YviJzax0tzduEotRvrsmLtvx9x9eD92n6/a+e0HuFunOt7Hg5q8DXJns/YrvmJn5z//5/gB5nVaOzXH+Kfh9/lwQ/3vmejfSxu1LWmjNopRWyEbww5X2Bi2ssb+99yxO7Y76LIlbdRGMUkr5CG+X8awadT67zUic/cBaHE/iiPHd+MqtRjjs/MFu0PRl0TMZuRmRvEbn9/ZuWSVVveUw/t4UINv1t5xxx17p2jf8Y537P385Cc/eefqq6/eOeOMM/Z+PrY7kR34vxKydMUVV+w87WkjnuZqTd+pfGNJNnzeB+JzXgSf9wFZBGfP530gNmuz57M+sG/+5p2dX/zF+CEY37Ph8z4Q85gi+LwPTIFC1nzeB2LuXgSf9wHJR2Zh8CL5xabsW9/61p173etee38t4v2NWoCNubeTFvncU7u+BW/fIgFK1ndfrWQPtXvBCyKAiqUbtdAic3eA8vVtzBrfJzdKR7NFy+PF6dnFX3e2PwbYhoQ+QJ0UJQDUp2/u/qu/GgFUypyGFvQl9PsK06BUCi1p1dveFgFzcf0UUA6X+VMzCwJa5XNO7Zy8glOe+tQIAKiKuQ5A+Z7+9AgOUIwzKZu1QDncQwDQBp0TqJmTV7RCOzVqptCSlvWN71CLtPjg1lsjgAZ98pMRMAWbtUDZ/t7fiwAKd+WVEUCDJPQB6qQ4AaANTl9Rq9/5nQigQV/3dREwBZu1QNl+/ucjgMK96lURBMlNWvOwh0UAFXHyitb1fd4V41ADbV/hdL4TAOVTSD8rm7VAWbw0aIVkPq35V/8qAgCqkhbjPPrREUBFtIWlNX2feadrKZ1CS3B4ZEY2a4HyeGlQG4ta6F8E+25QuvSUiTkMLfrwhyMI73tfBABUxelagPLpjDMbm7VAebw0ANog4QNQPp1xqI1iMjhFERq1UWgJp/zf/3cETMlmLVCmyy6LACpgQQCnaKdG7bRRo1XmNtREMRmcopAeoE42a2dhsxYo0+MfHwEAVZMQpVQKDeAuEvrUTDECLfP5p2YKLWlV32f/V381AsZisxYok4QPtehL5lsQ0DKna6mFQgM43dveFgEA1bB2pRbWnHC4pz41AsZisxYolwpOgDbY9KIG5i207ulPjwAKptASjqaQnhJZc8Lp+grpje+jslkLlMvpWmpgQQBdNrUA2vA93xMBAMWS0KdG1qTgezAxm7VA2bw0qI3PNDihQvmcvILV/PN/HgEUQqEl9HvoQyMAoBoOSk3KZi1Qtr6XhnsmAOpjQQBQPqevqI1CSzjlF34hAiiQQktY7tGPjiA87GERMDSbtUB9vvEbI4DMWRDAchL6lMzJK1jO5hY1MXeHUxTSUzJjOSz3vvdFED784QgYms1aoD6f+EQEABTtu787AiiczSm4S19CVDEOJbDxBOtRvEYp0nmIuTvcRSH9ZGzWAuXz0qBU6eLVggBO98M/HAEUTrU+AFC7vtyMIgeA8slXTsJmLVCHvkUBAPX5pV+KADIlKQlHk/ChRAotYX1O11IihZZwOp1xJmGzFqiXZCmlsSCAoz3jGRFApiQl4WgSPtTA3B26nK6lND6fsJpf+ZUIGIvNWqBekqXkzIIAViPhQ+mcvIJ+vhuUxNwDNic3A1C+r//6CBiLzVqgHhL6lMSCFTbn+wNQPqdrAYC5pWtLxWSwuu/8zggYgs1aoG4S+pTCggCW6yvGkdAnR31FYtpkwnLmP5TCuhJWp5AeoA0/8zMRMASbtUBdJHwA6vSgB0UQHvGICCAjNmZhPX3fGQl9SmDdCetR8ECOFFrCehTSj8pmLVAX7dQogQUBrO8Tn4ggfPCDEUBG0jmHZD6s7+///QgAKJaEPkCd+sZ3BmGzFqiPxChAfbRTA2iDYhxyo9ASNvOCF0QAmXJfLQxDbmYQNmuB+minRu60gIJh+C6RO8l8OJrTVwB1+smfjACAqsnNDMJmLdAGLw1ypoUIrEZCn5wpDIPNmQuRMyevYDhXXBEBZEihJazGXGgUNmuBOkn4ANTp3//7CAComgIIciWZD5u79NIIYGbmGbC5vrmQQvqt2awF2uGlQQ4sCGA7T35yBAf4XpEDJ69gWDrjAJSvr5De3B2gfNa7g7NZC9TL6VpyJPEIw/uZn4kAgGJJ6JMjn0EYnjUxOVBoCdtxunZwNmuBtlhskxsLAtjeW94SAcykb36hTSZsT0KfufkMwvb6inEk9AHKJ6c5KJu1QFsstgHK5/QVQJ0kfMidzyhs5mEPiyA8+tERwAwUWsIw+r4311wTAeuyWQvUTUKfnFgQwHgU4zCn9PPnKgbYjHZqAHX68IcjCO97XwQAVOVZz4qAddmsBdojoQ9QPu3UyJnCMNick4vkTKElbEYhPTlJ84LmHjCcj3wkAtZlsxaon0kXuVAoAMN6z3sigMxI5sPmfH/IhY0kGJf1MUD5FNIPxmYtUD/t1MiVQgLYzplnRgAzksyH8Zm7Mwcnr2BYEvrkSqEYbMc1QIOwWQu0wcKaHFkQwHb6vkNvfnMEABTL3B2gTm97WwQwE4WWMI1rromAVdmsBdpgU4y5WRDANP7u340AJuLkFQxPZxxyZE0J23v60yM4wFqZKRnLYRrHj0fAqmzWAu2S8GFK7uOBcWinBlAnhQ/MyeYRTOczn4kAJpCuFc03YBh9uRnzqbXYrAXaIaFPTiwIYDi+T8ylb/GpWh+G0fddkvBhKgotYTpf8zURAFAV86m12KwF2nLve0cAQDW0ywRog4QPc1EYBsNx+oq5KLSEcV17bQRswmYt0Ja3vz0CmJkFAQzr0Y+OIDz0oRHAiNxXC+OS0AeoUzpnUowDUL4LLojgAIX0K7NZC7RFOzXm4DMG43vf+yIIf/zHEQBQFQl9xubkFYxPZxzmoNASxud7tTGbtQASPozNZwzG515yciCZD8OT8AGo06/9WgQAVMOaeGM2a4H2aKfG3CQdYRy+W0zJ3AGm4fQVU3PyCqZx3/tGADOxqQTTMHdfic1agAUnH5mSBQGMQ0IfoE42ywDq0zd3v+KKCGBgCi1hOtdeGwHrsFkLtKnvdC2MwYIApnX55RHAyJy8gukodGMq7quFeV16aQQwMGM5TOeCCyI4QCH9kWzWAuzz0mAMTm3DtJ72tAgAqJq5O0D5+grpje+MIf1cOcQB41LMvDabtUC7vDSYg88dTO/Zz44ABuLkFUxPQp8pKLSE6WmXyRx0QYNx9a2Pr7kmAvrYrAXaJakK0IY3vSkCAIp2z3tGABNRaAnj0y6TsSm0hDwcPx4BfWzWAhxkQcCQLAhgHk5fMTb31cI8rrwyApiIuTtM4xGPiCCkPwNQnr7cjFPtS9msBdomoQ9QJ5tnAPXRTo0xSR7CfD74wQhC+jNsQ6El5MOVE0vZrAW49NIIYGAWBDCfvoS+YhzG4uQVzEc7NYYieQjzUUgPUCf3kq/MZi3AL/1SBABU5Yd+KAIYkJNXMC/t1JiKQkuYloQ+U1FoCdNxL/nKbNYC9HnXuyKADbmvFubnhAxjuP32CIBsGO8ByiehzxgUdMH8FMCtxGYtQJ8nPSkCAIqlFTJjePzjIwgWnjC9vtO1sA2FlpCHyy+PAAbyB38QATAbc6qV2KwFWNBOjaE54QF5sJEG0IY3vCECAIr1tKdFAAN57nMjCAq+IA8K6Tts1gIsY7ONIdkwgnk4XcuQnLyCfKXJWFiHtR/k65/8kwhgAA5mwDz6CiXkZk5jsxZgn5cGY5LMh/kolgCoj844jMncAfLxmtdEAGtSaAl5ufe9I6CPzVqAg847L4Jw/HgEABSrb0Euoc8m0pNXkvmQF6cjGYpkPsxHIT1And7+9gjoY7MW4KCbboognDgRAazBQhLy98xnRgBAsST0Aep07bURwBYUWkJeFNIfymYtwEHaqTEGCwLIz0c+EgGsSBs1yNNTnxoBbCjd4E+7LQHTu+CCCA5QjANQH51x7mSzFuAoXhoA5XP6CqBOL3pRBDCQX/mVCAAolkJLyJODUkvZrAVISeizDQsCyJd2amxD8RbkqW+e9a53RQBAsczdAdpgrb3HZi1An1/4hQgAqEZfOzUVnGxKi3vI15OeFAEcQaEl5EsrZLZh8wfy1XdQCpu1AL2e9awIDpDQZxUWBFAW31k2JZkP+dBODaBOTtcyFIWWkLfXvS6CdtmsBVjV298eAazBggDyIqHPJnxGoDyKcVhF+jkxd4e8OF3LUBRaQt6+67siaJfNWoBV/fN/HgGswYIA8iehz1F8RiB/fcU4EvoA5VNEwboUWkL+FNJ32KwFWMZLg3X5fEAZtFNjW31zBGB+Z58dQbjkkgigR9/cXaEl5Kfve2ntzWEUWkKZGv/u2qwFWIcJH4fx+YAyaKfGtiQIIU+33RZBuPLKCACoynOeEwGswOlsyJPOOKexWQtwGC8NtmFBAPny/WRVTl5BOXTGYR0KLaFcf/iHEQBQtK/92giwWQtwlNe+NoJw5pkRAFAs7dQA2mBDjlUp5IJ8KaRnVQotoSwvfnEE2KwFOMpjHhNBuP32COAACwIon4Q+fdLPhWQ+5E1Cn02Zu0Pe+sZ3AMrWN//6jd+IoC02awGO0vfSeMc7IoBgkwfKI+EDUKef/MkIYAndNKAOvsukFFpC+S65JIK22KwF2MTXfE0EsIQFAZTJ6SsO0jUByvSCF0QASyi0hDr4LgOUr6+QvsFiHJu1AKvQTg2gTk7XArThv//3CKCHQksog4Q+h1FoCfVosBjHZi3Aqk6ciAASFgRQFwkf9t10UwRA8b7kSyIAoCpO1wKUz0Epm7UAK3vc4yI4wOlagPpI+LDvqU+NIDh5BeWQ8GEZhZZQNvMxlvnbfzsCoEj3vncE4fjxCNpgsxZgHQ96UAThiU+MgKbZ2IGyaafGqiTzoSwS+gD16ZuPKcZh4bbbIgjmAVCWT386gtBYl0ubtQDr+MQnIgjvelcEcIAFAZRPEQY27KF8Evr0Sd/x5u5QHt9bVqHQEsrSeCG9zVqAdWinxiosCKA8Ej6kbNhDHdL2aWefHQEAxbLmJqXQEurU0LrcZi3AuiT0OciCAOrg9BVH8f6HMv3gD0YQ0haJtKVv7m7TB+pg7t42hZZQh4YPStmsBViXhD4HWRBAPWzGAdSnb+5+1VUR0Bwbs1APc3cO4/MB5frpn46gLTZrATbxr/5VBJCwIIBySeCyz8krqNvFF0dAcxTZQj0U0gPU6XnPi+CABjob2qwF2MTf+3sRQEIyH+oi4QNQvobbqXEEhZZQNt9hFhRaQv3ue98I6mWzFmAo3/d9EdAM99VCfST0WUhb3EsEQvne854I4ADJfChb33fYOr09rqeC+n35l0dQL5u1AEN5xSsioBkWBFCn886LAIBqXHRRBAcoxmmLDRxog3U6Ci2hfA0W0tusBdiU01ekLAigDr/yKxHQJG3UoF5pMc43fVMENMEGDtSpLzejOAOgfI3lWW3WAmzD5hxAfbRTA6jTTTdFEH7xFyOgSdZyUC/FGe1QaAn16vsuV3xQymYtwDYae2lwgAUBtEXCpx3+rKFeOuNwkLk71EPxBUCdLrkkgvrZrAXY1vOeFwEA1dBOjX2Sf1AX3+k2eYdD3RTStysttPSeh7q89KUR1M9mLcC2nvnMCGiKBQG0x4nL+umaAPWT0G+TdzjUz5qcBXN3qEvfd/pd74qgLjZrAbYl4QNQp77TtQCU76d/OgKaZVMH6mOTrj26JkCbnvSkCOpisxZgCBb7bXHyCtqlGKduTl5BG1xjAtAGc3eA8vUV0lc4vtusBRiC07UAdVKM0zanq6EdP/7jEVAdhZbQjkYS+gSFltCO97wngnrZrAUYioR+O9xXC+2QzAVowwtfGAEARbv3vSOgOXIzUK+LLorggMqKcWzWAgylL6Hv/gyA+qjOr5N3NrTF6at2KLSEtrz97RFQNV0ToD0PeUgE4WEPi6AONmsBxvT850dANSwIoD0S+m3QRg3ao9U5QH0U0gPU6SMfiSB8+MMR1MFmLcCYPvCBCAAo2jOfGQHNcPIK2iShXxeFlsCCorz6+DOF9lReSG+zFmBITl/Vz4IA2vRv/k0ENEMyH9pkrgdQvr7cjGKcuim0hDZU/F23WQswNO3U2mJBAO36jd+IgOJJ3kG7zOXqlm6++/OGdinGqZtCS2hD33e9koNSNmsBpiAJXAdt1ICDLrkkAooneQftqjjhA9A0hfT1kmODtr3xjRHUxWYtwBQkgQHKp51aO5y8grb4ztdJoSWQesMbIqBocmzQtmc/O4K62KwFGIOEfp3SBcGJExEAzZIoqJNkPrTF6VqANjz3uRFQFUVXwCtfGUG5bNYCTEVCvz538xqF5vQV40jo///bu/9Yy6rqcOBngG/QDELFoBhIjG0kImAyJsQgpM4ACvWPSpwh1BaSsY0NZdJqKTZDKWW0UsZiaWk71FS0FCcaAkNISKFQmB+RH6kaMIKa8IexBtA46aQgxJAA82XfWc95czn3vfveO/ecs/f5fJKXWfe+O8745rDvPmutvW7eNFMBiURvecbvv/wbw/BopB8GjZbAX/5lBPmSZQaYFcmA8rkhgGE68sgIwllnRUCWNFMBSd2+TkIfoDz2fnnz3gwkBTbSK9YCzIpxamVxQwDMeemlCMJDD0VAETRbAXOuuCICslO3d9doCcNkMk5ZFNuBOXXre8YUawFmScK3HG4IgDnGqQEMw7e+FQEAWbvggggojrwbMF/GuRnFWoBZMk6tXG4IgPk0dOTJyStgPqevyjH+vmzvDsN2+eURUBx7d2C+jHMzirUAbZPQL4MbAhg2Cf0yeE8GxhU2Tg2A19Tdv99/fwRkw+EHYFxBDXmKtQCzpos7f24IgDpf/3oEFMN7NlDHXjAvpiYA0zjvvAjIhkZLYFzdHi/TRnrFWoBZK+hNY7DcEAB1Pv7xCOaR0Acoj70gQP7qJifYu+dNoyWQFLIWKNYCtME4tbK4IQAmueuuCOg9J6+ASST08zZeXLd3BybRjJM3e3cgKeSglGItQFckfPLlhgCY5IYbIqD3JOeApbBmAOSvrhnH5LM8yKEBCymgOU+xFqArEj55cEMALMTpq3I4eQXMZ03IU917sEZLYL7VqyMIH/5wBPSaHBqwkLr9Xma5GcVagLZI6OfJDQGwVNYNgPwVMk4NgDEvvhhBuP/+CMiKpipgMZ/+dAR5UKwF6JKEfn7cEADjjFPLj5NXwDTs+/Izfn/l3xAYp5G+DPbuwGIeeyyCPCjWArRJsiB/bgiAOv/yLxGQBc1SwDTs+wCGwd6w3xTTgWlk3kivWAvQJuPU8uKGAJjWKadEQJY0UwHTsnfvL1MTgGmZjJMXxXRgWnXreyYUawHaJiGcD2PUgGnVJYPvvjsCALJl/wdQJpNx8uW9GViKTA7jKNYCtE13N8Aw/PZvR0CvOHkFLIXJOPnQaAksxaWXRkB27N2BpcjkdL5iLUAfSPj0j2Q+sFTGqeXBGDVgqRT9AIbhBz+IgN7w8VTAUtXlZjJYSxRrAbqQ6ZsGAIuQ0M+PfzNgMXUNe/bu/aLREmjCKadEQG9otASakMFaolgL0Bc2oP0y/u8hmQ9Mw7jM/EjmA8th7w6QP430+ZGbAaaR4VqhWAvQFRtMgDKdeGIEYe3aCOic5BuwXBL6/abREliu8fVCM05/mJoALFeGjfSKtQBdqXvTkPDpBzcEwEo8/XQEYffuCOic5BvQJGsKQP4yTOgDMIXMmvcUawH6RMIHIH91p68kfPrJyStgKawZ/aTRElipc86JIBx5ZAR0So4MWInM9oOKtQBdMk6tn8ZvCCTmgKWybvSPZD6wUk5fAZTpmmsiCC+9FAG94h4LWKke790VawH6RucgQP4k9AHKJFHcPxotgZWq27vff38EdEKjJdCEjPaFirUAXZNM6JeHH45gHjcEwHJ85SsR0AuaoYAm2BcCDMN550UAQLYyaqRXrAXoWkZvGgAswe//fgT0kmYpoCn27t1x8gpoSt3HVFnfu2NqAtCUTNYPxVqAPrDp7I+zzoog+LcBmvQXfxEBrTI1AWhSXUK/rmjI7L36agQADdi5MwIAilF3779nTwT9oVgL0AcSxgDDcN11EQBQFKPWu7F2bQRBoyWwEuvWRTCP07XtMzUBmLXxPWQPKNYC9JUbgva5IQCaZpxaP5iaADTNOtJP9u7ASh13XAThggsiACBbGUzGUawF6AsJfYAySegDlKeuKGgUcrvqRtwDrNTevRGEu+6KgNb4vFqgDT2bjKNYC9An4yd/aJcbAmAW6hL6mnG65eQVMAtGIbfLvRMwCxrpAcrU8zyvYi1An/zN30RAL0jmA03ZtCkCWie5BsxKBuPUBkWjJdAU60m/yM0ATeh5I71iLUCf1L1p7NkTATMlsQbM0kUXRUDnJN+AWXK6th11I5Al84Gm9DyhXzQ/Z2CWepwPUKwF6Lu1ayNgpiTWgFmS8AEoU93pWgDy96//GgGd0mgJNKkuN9OTAzyKtQB9Y5xaP7ghAJpmXWmfk1dAF+68MwJmxufVArP2yU9GQKfs3YFZ68kBHsVagBw49TlbdcVwNwRA05yubd94Mv93fzcCgBlavz4CWqMhCmjDF78YATNR12gJ0LSeHpRSrAXoI6drAcokmdytSy+NAKBB9u7tMjUB6MpnPhMBM2FqAtCWI4+MIPTgoJRiLUAutm2LgMaNvyErpgCzUpdMltCfDcl8oEsm48yOZD7QlrpmHJNx2iM3A8zKf/1XBP2hWAuQi9tuiwCAonz60xEAkC0J/e5I5gOzZI1ph0ZLoE1168uePRF0Q7EWoK+MU2tH3c/UDQHQpscei4BGjZ+8kmgDZu1974sAgGL0MKEPwAysXRtBNxRrAXJinFrzFGaBtjl9BVCmf/iHCJgZJ6+APug4oV8kjZZA23p2UEqxFqDPJPRnb/zn6YYAaEPd+k5zTE0AulC3zuzaFQGN8Hm1QBceeigCAIrW4UEpxVqAvrvhhghohWQ+0BWj7ptjEgXQF2efHQEzodESaMOZZ0Ywj0b65piaAHSlR430irUAffenfxoBjVMYAfpEgXF2JPOBtvRsnFpRJPOBLjldOzumJgB9sn17BO1SrAXI0d//fQSsiMII0CUJ/fZI5gNdsucEyJ/Tte3RaAl06ZJLImiXYi1Aji6/PAIa5YYA6JqE/sopeANd04wzG+Mnr+zdgbZZd5pnagLQtZ7s3RVrAXIg4dO8up+fGwKgbRI+zVPwBvro5psjACBbdTmDPXsiAKAYHeQVFGsBciUZvTJ+fkAf1CV8jFNrloI40Ae33hoBy+LkFdBXV14ZActiagLQB3UHpVrOzSjWAuSiB28aRXNDAHTF+tMcUxOAvjAZp1k+Bgboq0cfjQCArJ1xRgTdmFisfeWVV6qTTz65WrVqVbVhw4bX7jNef6NR95r0leL0XPq69tpr49UArNgnPhFBOProCFgxyXygK8apNcfUBKDPrFHL961vRRA0OgFd0UjfHFMTgD75whci6MbEYu3WrVurm266qXr11VdHj5999tnRr/PVvWb37t3VmjVrRkXbl19+udq+fXu1a9eu0fcBWKF/+7cIwvPPR8CSONUA9N3atRGwIpL5QJck9JthagLQN3XrO0s3PgIZoEt1+8sWa5u1xdp0YjYVWU866aTR6dhNmzZVt9xyS3z3gEmvWbduXXXVVVeNXnP44YdXF1988SgGoAF1NwQaYpbOqQagbxQVV04yH+ijq6+OAICiaQpfOfdEQN+cfXYEszfxZO1xxx1XHXPMMfGoqh5//PHRadn5FntNKujed9991emnnx7PANC4Ft80iuWGAOhaXVHR6SuA/H3ucxGwbOONlvbuQB9pCl8aI5CBPqo7KNVSM86q/eMV2NekIms6IXvPPfdURx111GiM8bZt26rbb799dIp2mtek/9kLL7ywuvHGG6sTTjhh9HuSud+/Uqeddlq1ZcuWeAT9k/57SCfOYRY+tn59RAfduWNHRO3L6Xo/+4Ybql8buyno8mdHfqzvzNL4+t71+pTT9T7+s3vu/e+vHvzzP49HsDBrO7M0vj796I//uPpuh+Puc7vex39+/3fmmdXOyy+PR7Aw6zuz1Lf1KafrXW6GlbK+Myvja3uynPUp1S+feOKJeLS4UbF2rrC647U/8M1vfnP1gx/8YFSIfeCBB0aF1lSIfeSRR3413jhJxdpTTz219jXjhdz55gq5ULo777yz+tjHPhaPoGEPPlhV554bD0KHa2tW13td05D3JZbA+s5Mja9R6fRQhx3mWa/vHf/syIu1nZnq2f4zq+s9nWQYP61m784SWN+ZKev78tm7s0LWd2aqgzVqNAY5FVDvuOOO195L9lf79u2rjj/++NFnzT711FOj51KXwsaNG0e/Yc7c59GOvyYVai+66KJR8Xa8UAtAQ845J4J56m4SWJwxakCfGac2HZ9XC/RZXeLe3n063geBPnvooQgAKNq2bRHMzsTPrN28eXN12WWXVYcddli1Zs2aX40yvvbaa6tnnnlmFNe9ZuvWraMTukccccSoCJy+UuEWgIatXh1BMApscZL5QN/VJfRb+nyUrEnmA30nod8MjZZAn5x5ZgTzaMZZnM+rBXJz220RzM7EYm06OfvDH/5wdGp2/vjjFM8Vbutek35Nj+d/pZHIADTsxRcjCDfcEAEARVGIXDrJfKBvJPSXTqMlkAP7zqU766wIAHpqf/uN9BOLtQD0XN2bhoTPwsYLHm6qgD5y+mppJPOBXJx6agThuOMioJZmJSAH9p0rJzcD5GDGe1PFWoCc2dAClMfpK4AyPflkBGHv3giYinsfIBf27pMZgQzkouWDUoq1ADmr29C6Kajn5BWQEwnp6ZmaAOSig3Fq2bJ3B3Ji/zk9I5CBnGzZEsHsKdYC5O666yJgQcaoATmRkJ6OIgeQO3tUgPxppF8+hW6gz665JoLZU6wFyN3mzRGwJG4IgNxI+ExHoRvos5bHqWXL1AQgN9apxZmaAJTgZz+LoFmKtQAl+tKXImDEDQGQI+MyFyeZD+ToP/4jAgCKUZdjsHcHKM/b3x5BsxRrAUr0R38UASMbN0YAkJkjjoggGJcJkL+PfCSCeST0D9JoCZTC3v1Q4z+PuuZUgL5paTKOYi1ACYxTW9iPfhRBcPIKyMXOnRHwOpL5QM7Gm3EefjgCTE0AsmUyzmR+DkDOWtiPKtYClEISo55kPpAz49Qmc1IByNnLL0cQrrwyAgCKYs8KkL+63EzDB6UUawFK0cKbRpbcGAGlsa7V07QE5MRknHoaLYHc2ZPWMzUByN373hdBOProCJqhWAtQkgsuiCCMj1fDDQGQH+PUXk8yHyiBfenraUgCcqeRHqBMjz0WQXj++QiaoVgLUJK77oogjI9XGxrJfKBUQ09mS+YDJZDQX5yCNpAja9eh5GaAEtQ10u/ZE8HKKdYClMQ4tUNJ5gOlkPBZmJ8PkKstWyJAMh8ohrXrUEYgA6VauzaClVOsBSiNTe9kfjZArpy+OkgyHyjJ2WdHgEZLoGgmJwDkb4YHpRRrAUojoX+AZD5QGg0nB0jmAyWp259+9asRDJz3PSBndQn9ujxF6eRmgNLce28EzVKsBSjRzp0RAFAMSY16kvlAaf7gDyIYEMl8YAiG2HRoBDJQmvPPj2CeBg5KKdYClGjdugjmGVoHpxsCYAiGNjlBMh8o0QzHqWXD1ASgRPIQAGVavTqCcNZZESyfYi3AUHz+8xEMgGQ+UKqhJ/Ql84FS1a3vQ6bAAZSgLg8xpEZ6uRmgVC++GEF46KEIlk+xFmAo7r8/ggGQzAdKtnZtBEjmA0UbSkJfMh8YkiHlK+RmgFLNoJFesRagVMapHSSZD5Tkc5+LYGAk84Gh+dCHIiicZD5QsrrczJBO184nNwOUpOE1TbEWoGRDHKcmmQ+Urm5N27MngoJJ5gND89JLEQyMZD5QuiHsa+VmgNLVrWkrOCilWAswNKV3cErmA0M0xNHIkvlAaYY4GUcyHxiCIe5bx3Mz9u5Aia6/PoKVU6wFGJqhFTPdEAAlGto4Ncl8YCiGtnfVaAkMQd2+9Y47IihQ6YcEAOZccUUEK6dYC1C6ISX0JfOBISs54S2ZDwxFw+PUsqPREhiKCy+MYCDkZoCh+PKXI1gaxVqAISo16S2ZDwzJ0E7XzieZD5Rs584ICqfREhiSIe3dx3Mz9u7AkPzhH0awNIq1AEMw1I2xGwJgaG68MYKCSOYDQ7NuXQTzlJjQl8wHhq7EhvOhNI8CzKlrxlnGZBzFWoAhGMI4Ncl8gKrasSOCgpiaAFBV118fQSEk84Ehaiih32t1e3e5GaB0dev7EinWAgxF6Z3qkvnAEJU+Tq3u/4uTV8AQ3X13BAWTzAeG4IwzIhgIe3dgqJaYm1GsBRiKuuRHyR3tbgiAoSqpeUVnPjBUpZ++Gl/f7d2BofjCFyIoUF2Oyd4dGKqzz45gOoq1AEP2oQ9FkDk3BMCQDWGc2hzJfGBIGhin1kv27sCQ1a13e/ZEkDkTzwAOevnlCKajWAswJONJ7pdeiiBzOvOBobvxxggKIpkP8HolTMaRzAc41Nq1ERRGbgYYkhU20ivWAgxJXZI799NXJSSsAFbqT/4kgoJI5gO8Xolro2Q+MDR1Cf3ccxsaLQFWtK9VrAUYmtLGqdUlrNwQAFTVF78YQSFKHQcKsJDS1j7JfIB6uTfjaLQEWNFBKcVaAMo6naozH+CAz3wmggyZmgAwWc6TccaT+bfcEgHAwJR0urbu7y03AwzV7t0RLI1iLQD5dkDqzAc4qKSEj858gINKSXjXvSf9+q9HAEB1880RZKZu7y43AwzVBz8YwTxT5GYUawGGqJSE/vgNwSc/GQEAIzkWPevej3TmA0O2gnFqvSKZD7CwW2+NIHP27gCHuv76CCZTrAXggBJOMV1ySQQAA1XXjJNbQl8yH+D1Skx8S+YDQ1dCI33d39feHeBQd98dwWSKtQBDlXtypK744IYAoKouvTSCcPTREWRKMh8g/32uZD7AdHJrpC+h8R+gactopFesBRiquuRIjuPU5kjmAxzwpS9FEJ5/PoIMSOYDTC+nvbtkPkC9nCfj1O3d6/7/AAzREtdDxVqAIcu1wCmZDzBZ3Q3Bgw9G0HOS+QCTlbR312gJcNCWLRFkxt4dYGnq9sVBsRZgyHItcLohAFiac8+NoMck8wEWlutknLq9u0ZLgIOuuSaCzNm7AyxsgZy2Yi0Ah+p7wkcyH2BxOY5Tk8wHWFwJ+157d4DF7d0bQU+ZeAawuLrczITTtYq1AEO3hDeNXpDMB5jOAw9EkAGNOADTqdv39nnvLpkPsDxvfWsEPTWem7F3B5jOhNO1irUAvN4CIxl6xw0BQL1zzolgnhzGZc6RzAeYTp/37jndVwB0KafJOBpxAKY3Ze5asRaAfAqedTcqbggAJlu9OoKwaVMEPaMzH2B6uUzGqfs71f3dATgglz2wRhyA6dXlrmty3Iq1ANS/afR5nNocyR6Ahb34YgRh27YIekRnPsDK9TFxLpkPsDRTJvQ7Vbd312gJsLAp1knFWgDq9S25kkPxGKBvchin5lQtwNLluFZa3wEWd+qpEYTjjougJ+pyRRotARY2xTqpWAvAAX0fp6YzH2B5+pwcd6oWYHn6fvrKx5cALM+TT0YQ9u6NoAecqgVozth+WbEWgMn6UiB1QwCwfH1O6GvEAVi+vu6H7d0Blq+ukX7Pngg6tnNnBPNoxAGYziL7YcVaAA7qaxLFmB2Albn++gh6RDIfYGX6uh+2dwdo1tq1EXRsy5YIgr07wPQWaaRXrAXgoEXeNDohmQ+wcldcEUGPSOYDNK+Pe/e6U2IATFa3bna9vtf9nezdAZZmgZy2Yi0Ah+pbIVQyH2A2/vEfI+iARhyAZtQlz+vW2LYYbw/QjHvvjaAnDhsrI9i7AyxdXU479u6KtQAcqk+FUMl8gNn51Kci6IBGHIDZ6apgau8O0Jzzz49gnq5O1zpVCzA7sXdXrAVgcV3dEEjmAzSnL+PUJPMBmtWXNdTeHaBZRx4ZQbj66gha5lQtQHMmTMZRrAXg9fqQ0JfMB2heH9ZRyXyAZtWtoXV76Vmydwdo3ksvRRD++q8jaNHv/E4E89i7AzTrN39TsRaACd71rgg6IpkP0Ly6dbTNZhzJfIB21O2lZ8neHaB5XTfSp737bbfFg2DvDrByNWupYi0A9b7ylQg6UHfz4YYAoBkXXBBBByTzAWZjwji1VmjEAZidLtdTe3eA2ahZSxVrAahXtwFvK+FTxw0BQDMuvzyCHpDMB5idtk7XSuYDzE7detrG6VqNOACtUqwFYHptJHzqbjrqTgoAsDxdJHxSsmf8z7jrLsl8gCZ1sWe2dweYvc9/PoIWacQBmK2xPbNiLQCTtT1OrcuTuwBD0nZXfF2y56MfjQCAmfnP/4wAgGxddVUELXGqFqB1irUALM0sT9fW/W/rzAdoXpunayV7ALrzW78VwQzUvW9Y3wHasX17BDPgVC1AO+blvRVrAVhYW6drJfMB2rVzZwQzJtkD0J6u9+7Wd4B2XHJJBA0z3h6gE4q1ACzdjh0RNEgyH6Bd69ZFME/TCX2nrgC6N4vJOPbuAO2qK5g2PRlHEz1A+2KdVawFYOluvDGChujcBOiHv/qrCBowqfArmQ8wW7NO6P/7v0cwj2Q+wOzNeq3ViAPQvlhnFWsBWNwsx6np3AToj927I2hAXbJHIw5AO97xjggalvbuGzfGg3DXXZL5AG2oW2ubys2YiAPQKcVaAJaniXFq6aZC5yZAd2Z1+kqyB6BbX/taBA2r27t/9KMRANC6s8+OYAUmFXzlZgDasX+/Yi0AU5pFQt+pK4DuNb3uTnpvkOwBaM8sTl9pxAHon5dfjmCZJjXRy80AtEqxFoDpXX55BA2Q7AHor+Um9Cf9PskegO6tZDLOuedGME/au2vEAWhXk430CrUAvaFYC8D0/u7vIlihSYVayR6AflhuQl+yB6A/6tbf5TTjPPjgga9x9u4A3Wiq0b1u766JHqATirUArMz27RFM6QMfiGCMZA9Ad5pI6JuYANB/S23GSe8FdadqNeIAdKcuf7LU07Wa6AF6RbEWgJW55JIIpnDaaVX16KPxYB7JHoD+mTahnxL5kj0A/VSzzz77hhsiWsSk8ZgacQC6t3NnBMtQt3f/53+2dwfokGItAEuz3IRPuhl48sl4MI9CLUA/LCf5/vDDkxP5kj0AvbT6scciWsCf/Zn1HaDP1q2L4KBz/vZvI1pAXaH2Xe+qqk2b4gEAXVCsBWDFfi0l6yeZdOIqUagF6I+a5PvH1q+PqMbv/V5VnXVWPJhHIh+g1/7fL38Z0QRp717XjJn27tZ3gN5603//d0Q1Ut6mLjdz7LFV9dRT8QCArijWArB0dUXWuk3/hg2Tx2gq1AL0zzSna+eacL7+9XhiHol8gP6p23entXzcpER+Yu8O0Hu1if65tb2uyTL53/+NAIAuKdYCsDxnnBFBeMc7DvyaEj+/8RsHbgZ27Djw3DjJHoB+qiu0pnU9fT344IG1XRMOQP7m1vI9e6pq69aFE/nWd4B+qluf5zfdLLS2J9Z3gN5QrAVgeR59NILwP/9zMIn/ox/Fk2PSjYCbAYC8pHU9fZ17bjxRw9oO0G+TEvpr11bVlVfGE2PS96zvAP02aX2fX7Qdl6bpWN8BekWxFoDlWerGfprRmgB0bynrtUQPQD4+8YkIppDW91274gEARTjnnAN7dx9bAtA7irUAzNZcIt/NAEAeplmvv/Y1aztAbr761QgWYO8OUJ7Vqw+s7Q88EE8A0DeKtQAsX9rs17n33gPfk+gByFPd+v7hDx9M4l98cTwJQFa+//0I5rnuOkVagJzV7d2T9Hz6euGFeAKAvlKsBWBlXtv437ljx8GbgPR1/vnxTQCyNb6+33efJD5A7t7zntfv3Tdvtr4D5O619fx16zsA2VCsBQAAAAAAAOiAYi0AAAAAAABABxRrAQAAAAAAADqgWAsAAAAAAADQAcVaAAAAAAAAgA4o1gIAAAAAAAB0QLEWAAAAAAAAoAOKtQAAAAAAAAAdUKwFAAAAAAAA6IBiLQAAAAAAAEAHFGsBAAAAAAAAOqBYCwAAAAAAANABxVoAAAAAAACADijWAgAAAAAAAHRAsRYAAAAAAACgA4q1AAAAAAAAAB1QrAUAAAAAAADogGItAAAAAAAAQAcUawEAAAAAAAA6oFgLAAAAAAAA0AHFWgAAAAAAAIAOKNYCAAAAAAAAdECxFgAAAAAAAKADirUAAAAAAAAAHVCsBQAAAAAAAOiAYi0AAAAAAABABxRrAQAAAAAAADqgWAsAAAAAAADQAcVaAAAAAAAAgA4o1gIAAAAAAAB0QLEWAAAAAAAAoAOKtQAAAAAAAAAdUKwFAAAAAAAA6IBiLQAAAAAAAEAHFGsBAAAAAAAAOqBYCwAAAAAAANABxVoAAAAAAACADijWAgAAAAAAAHRAsRYAAAAAAACgA4q1AAAAAAAAAB1QrAUAAAAAAADogGItAAAAAAAAQAcUawEAAAAAAAA6oFgLAAAAAAAA0AHFWgAAAAAAAIAOKNYCAAAAAAAAdECxFgAAAAAAAKADirUAAAAAAAAAHVCsBQAAAAAAAOiAYi0AAAAAAABABxRrAQAAAAAAADqgWAsAAAAAAADQAcVaAAAAAAAAgA4o1gIAAAAAAAB0QLEWAAAAAAAAoAOKtQAAAAAAAAAdUKwFAAAAAAAA6IBiLQAAAAAAAEAHFGsBAAAAAAAAOqBYCwAAAAAAANABxVoAAAAAAACADijWAgAAAAAAAHRAsRYAAAAAAACgA4q1AAAAAAAAAB1QrAUAAAAAAADogGItAAAAAAAAQAcUawEAAAAAAAA6oFgLAAAAAAAA0AHFWgAAAAAAAIAOKNYCAAAAAAAAdGDV/tdE3IpVq1ZVLf+R0In3vve91fe+9714BGVzvTMkrneGxPXOULjWGRLXO0PiemdIXO8Mieud0ijWwoy41hkS1ztD4npnSFzvDIVrnSFxvTMkrneGxPXOkLjeKY0xyAAAAAAAAAAdUKwFAAAAAAAA6IBiLQAAAAAAAEAHJhZrX3nllerkk08ezf7esGFD7fzvxV6za9euib8XAAAAAAAAYMgmFmu3bt1a3XTTTdWrr746evzss8+Ofp1vode88MIL1fr16+MRAAAAAAAAAPPVFmvTidnt27dXJ5100ujU7KZNm6pbbrklvnvAQq9JJ2k3b95c3XzzzaPHAAAAAAAAABxq1f6aGcWpELtu3brqnnvuqY466qjROONt27ZVt99++6gwu9hrdu/ePXpNKuR+6lOfOuT3zf26Uqeddlq1ZcuWeAT9k06W79ixIx5B2VzvDInrnSFxvTMUrnWGxPXOkLjeGRLXO0PieqfvUv3yiSeeiEeLa7xY++Uvf7m6+uqrq3/6p38ajUWuK9bW/JFQHNc6Q+J6Z0hc7wyJ652hcK0zJK53hsT1zpC43hkS1zulGY1BThf1hg0bRhf4scceW+3du3f09dxzz41elKxZs2b0/fnqXvPd7353VLQ97LDDqhNPPHHU3XDhhRfGKwAAAAAAAABIRsXaVIS94447RkXbffv2Vccff3x18cUXV0899dTouVR83bhx4+g3zDn88MNrX5NO26bH6evpp58eHUdPJ2sBAAAAAAAAOGhUrK2zefPm6rLLLhudkE0nZk844YTR89dee231zDPPjOJJrwEAAAAAAABgYbWfWTtLZokzFK51hsT1zpC43hkS1ztD4VpnSFzvDInrnSFxvTMkrndKM/FkLQAAAAAAAACzo1gLAAAAAAAA0AHFWgAAAAAAAIAOKNYCAAAAAAAAdGDV/pY/hfmd73xn9eMf/zgeAQAAAAAAAAxT68VaAAAAAAAAAIxBBgAAAAAAAOiEYi0AAAAAAABABxRrAQAAAAAAADqgWAsAAAAAAADQgdaKtc8880y1atWq0deuXbviWSjX/v37qw0bNoyufSjV3HU+t75fe+218R0oT7q+7WUYmnStp3U+rfdQqvnr+7HHHlu98MIL8R0oT7q+03WernfrOyVLe5i5tX3uy/0qpZp/vbvOKZ3cDKVqpVj7yiuvVB//+MerX/ziF6Ova665ZvQclCpd3+95z3uqHTt2xDNQpt27d1dr1qwZJXlefvnlavv27TZKFCk13jz++OPVq6++OtrLXHrppZL5FC9d4+vXr49HUKa0h0nr+9NPPz2K9+3bVx111FHxXShLuk/9yEc+Uv3kJz8ZXe9pH//ss8/Gd6Es69atG13nc/eqaU+zefPm+C6UI+3Z0/1puk+dy8s4OEKp0rWdrvF0raf8zLZt21zvFKOVYu3Pfvazau/evdUb3/jGavXq1dVb3/rW0XNQonQjsHXr1uo73/lO9e53vzuehTKlG+CrrrpqFB9++OHVxRdfPIqhNCeccEJ1xx13jDo3k7e97W2jfQ2UKu1nUkLz5ptvjmegTCnJ8/Of/7w65phj4hkoV8rDnHfeeb9qSEj7+LTHgdKlHM2mTZtG96xQmnRfmu5P5xx33HH2NRTrqaeeGuUe03qe8jOp8Sw9ByVobQzyKaecUh122ME/zn9ElCq9UaSb3je84Q3xDAxD6tS/7777qtNPPz2egfKkcTtvetObqs9+9rOSPRQtTU5IJ1De//73xzNQplS8+uY3vzla29M+3uhASpdOkp988smj690YZIYgnTr86U9/Wq1duzaegbKk+9I04SzlYk499dRRbEoIpTrppJNGJ2tTDjLtYdK+5pFHHonvQt5aK9YCUK60Qbrooouqb3zjG24KKFpqxpkbtWPkN6VKSc30UQ6SmgxBOlWY9jHpK63vKeFjfadUqWn++9//fvXkk0+OrvckNedAyb797W+PGtDmJuRAadII2FSkTWt7+kqxsbCUKu3d08naI444onrLW95SHX/88fEdyF9rxdp0QzB3M5CkLggA8pe62T74wQ9Wt9xyizFqDMLcqB3dm5QqJTVTQ0KainPiiSeOCrcXXnhhfBfKZX2ndCkPMzf1zPXOEKRGnLSPMf2Jks0fC5u+UpzyM1Cq1ESf1vd9+/ZVb3/726sPfOAD8R3IWyvF2tThkObl//KXv6xefPHF0WcC6XoAyF8q1KYTtcbsULrUmTw3GjNd92nszsaNG0ePoTTp88jnTho+/fTTo9Mot99+e3wXymJ9Z0hSHiblY1JeJq3x6SS5BCclS9d6snr16tGvUKK6sbDWdkqV9u5zH+OQJkLdeuutGnIoRivF2tTVk0Zjps8BSl8p9jlvAPnbunXrqFM5jR9J3fnpy+hASjR3ajxd4+l6v+mmm5wkByjA+PqeTqNY3ynV/NxMOl2bTtamBh0o1XPPPTc6dZXWeChV2rek+9O0j7G2U7p0vadrPF3raT+zc+dOh0coxqr9qQ0BAAAAAAAAgFa19pm1AAAAAAAAABykWAsAAAAAAADQAcVaAAAAAAAAgA4o1gIAAAAAAAC0rqr+P1lFvp0yzRZnAAAAAElFTkSuQmCC;fontColor=#000000;" parent="1" vertex="1">
          <mxGeometry x="102" y="476" width="359.22" height="178" as="geometry" />
        </mxCell>
        <mxCell id="C0HfOCWLTKzBKKs8LI0R-46" value="Signal Generation" style="rounded=1;whiteSpace=wrap;html=1;verticalAlign=bottom;labelPosition=center;verticalLabelPosition=top;align=center;fontStyle=1;fillColor=#FFF2CC;strokeColor=#000000;fontColor=#000000;" parent="1" vertex="1">
          <mxGeometry x="-20" y="320" width="540" height="150" as="geometry" />
        </mxCell>
        <mxCell id="C0HfOCWLTKzBKKs8LI0R-34" value="x" style="edgeStyle=orthogonalEdgeStyle;rounded=0;orthogonalLoop=1;jettySize=auto;html=1;exitX=1;exitY=0.25;exitDx=0;exitDy=0;labelBackgroundColor=none;verticalAlign=bottom;strokeColor=#000000;fontColor=#000000;" parent="1" source="C0HfOCWLTKzBKKs8LI0R-1" edge="1">
          <mxGeometry x="0.2796" relative="1" as="geometry">
            <mxPoint x="190" y="372.22580645161287" as="targetPoint" />
            <mxPoint as="offset" />
          </mxGeometry>
        </mxCell>
        <mxCell id="C0HfOCWLTKzBKKs8LI0R-1" value="Signal Generator" style="rounded=1;whiteSpace=wrap;html=1;horizontal=1;verticalAlign=top;fillColor=#B9E0A5;strokeColor=#000000;fontColor=#000000;" parent="1" vertex="1">
          <mxGeometry y="344.75" width="135" height="110" as="geometry" />
        </mxCell>
        <mxCell id="C0HfOCWLTKzBKKs8LI0R-4" value="Swing Phase" style="rounded=1;whiteSpace=wrap;html=1;fillColor=#97D077;strokeColor=#000000;fontColor=#000000;" parent="1" vertex="1">
          <mxGeometry x="12.5" y="376.12" width="110" height="25" as="geometry" />
        </mxCell>
        <mxCell id="C0HfOCWLTKzBKKs8LI0R-5" value="Stance Phase" style="rounded=1;whiteSpace=wrap;html=1;fillColor=#97D077;strokeColor=#000000;fontColor=#000000;" parent="1" vertex="1">
          <mxGeometry x="12.5" y="414" width="110" height="25" as="geometry" />
        </mxCell>
        <mxCell id="C0HfOCWLTKzBKKs8LI0R-6" value="Inverse Kinematics" style="rounded=1;whiteSpace=wrap;html=1;fillColor=#7EA6E0;strokeColor=#000000;fontColor=#000000;" parent="1" vertex="1">
          <mxGeometry x="430" y="376.12" width="80" height="47.25" as="geometry" />
        </mxCell>
        <mxCell id="C0HfOCWLTKzBKKs8LI0R-11" value="" style="endArrow=classic;html=1;rounded=0;exitX=0.998;exitY=0.185;exitDx=0;exitDy=0;exitPerimeter=0;labelBackgroundColor=none;strokeColor=#000000;entryX=0;entryY=0.5;entryDx=0;entryDy=0;fontColor=#000000;" parent="1" source="C0HfOCWLTKzBKKs8LI0R-6" target="jEoDmrueGU1iYw3OgaAT-6" edge="1">
          <mxGeometry width="50" height="50" relative="1" as="geometry">
            <mxPoint x="530" y="440" as="sourcePoint" />
            <mxPoint x="540" y="385" as="targetPoint" />
            <Array as="points">
              <mxPoint x="534" y="385" />
              <mxPoint x="534" y="364" />
            </Array>
          </mxGeometry>
        </mxCell>
        <mxCell id="C0HfOCWLTKzBKKs8LI0R-14" value="$$\alpha$$" style="edgeLabel;html=1;align=center;verticalAlign=middle;resizable=0;points=[];labelBackgroundColor=none;fontColor=#000000;" parent="C0HfOCWLTKzBKKs8LI0R-11" vertex="1" connectable="0">
          <mxGeometry x="0.3598" relative="1" as="geometry">
            <mxPoint x="-7" y="-8" as="offset" />
          </mxGeometry>
        </mxCell>
        <mxCell id="C0HfOCWLTKzBKKs8LI0R-12" value="$$\beta$$" style="endArrow=classic;html=1;rounded=0;exitX=1;exitY=0.5;exitDx=0;exitDy=0;labelBackgroundColor=none;strokeColor=#000000;entryX=0;entryY=0.5;entryDx=0;entryDy=0;fontColor=#000000;" parent="1" source="C0HfOCWLTKzBKKs8LI0R-6" target="jEoDmrueGU1iYw3OgaAT-7" edge="1">
          <mxGeometry x="-0.0625" y="8" width="50" height="50" relative="1" as="geometry">
            <mxPoint x="531" y="390" as="sourcePoint" />
            <mxPoint x="540" y="400" as="targetPoint" />
            <mxPoint as="offset" />
          </mxGeometry>
        </mxCell>
        <mxCell id="C0HfOCWLTKzBKKs8LI0R-13" value="$$\gamma$$" style="endArrow=classic;html=1;rounded=0;exitX=1.005;exitY=0.82;exitDx=0;exitDy=0;exitPerimeter=0;labelBackgroundColor=none;strokeColor=#000000;entryX=0;entryY=0.5;entryDx=0;entryDy=0;fontColor=#000000;" parent="1" source="C0HfOCWLTKzBKKs8LI0R-6" target="jEoDmrueGU1iYw3OgaAT-8" edge="1">
          <mxGeometry x="-0.2679" y="6" width="50" height="50" relative="1" as="geometry">
            <mxPoint x="541" y="400" as="sourcePoint" />
            <mxPoint x="540" y="415" as="targetPoint" />
            <mxPoint as="offset" />
            <Array as="points">
              <mxPoint x="534" y="415" />
              <mxPoint x="534" y="435" />
            </Array>
          </mxGeometry>
        </mxCell>
        <mxCell id="C0HfOCWLTKzBKKs8LI0R-22" value="" style="edgeStyle=orthogonalEdgeStyle;rounded=0;orthogonalLoop=1;jettySize=auto;html=1;strokeColor=#000000;fontColor=#000000;" parent="1" source="C0HfOCWLTKzBKKs8LI0R-15" target="C0HfOCWLTKzBKKs8LI0R-6" edge="1">
          <mxGeometry relative="1" as="geometry" />
        </mxCell>
        <mxCell id="C0HfOCWLTKzBKKs8LI0R-24" value="$$\vec{v}_{rt}$$" style="edgeLabel;html=1;align=center;verticalAlign=middle;resizable=0;points=[];labelBackgroundColor=none;fontColor=#000000;" parent="C0HfOCWLTKzBKKs8LI0R-22" vertex="1" connectable="0">
          <mxGeometry x="0.0143" y="-1" relative="1" as="geometry">
            <mxPoint x="-1" y="-11" as="offset" />
          </mxGeometry>
        </mxCell>
        <mxCell id="C0HfOCWLTKzBKKs8LI0R-15" value="Translation" style="rounded=1;whiteSpace=wrap;html=1;strokeColor=#000000;fillColor=#EA6B66;fontColor=#000000;" parent="1" vertex="1">
          <mxGeometry x="330" y="382.5" width="70" height="34.5" as="geometry" />
        </mxCell>
        <mxCell id="C0HfOCWLTKzBKKs8LI0R-32" value="y" style="edgeStyle=orthogonalEdgeStyle;rounded=0;orthogonalLoop=1;jettySize=auto;html=1;labelBackgroundColor=none;verticalAlign=bottom;textOpacity=40;opacity=40;strokeColor=#000000;fontColor=#000000;" parent="1" source="C0HfOCWLTKzBKKs8LI0R-19" edge="1">
          <mxGeometry x="-0.3445" relative="1" as="geometry">
            <mxPoint x="190" y="399.75" as="targetPoint" />
            <mxPoint as="offset" />
          </mxGeometry>
        </mxCell>
        <mxCell id="C0HfOCWLTKzBKKs8LI0R-19" value="0" style="rounded=0;whiteSpace=wrap;html=1;textOpacity=40;opacity=40;strokeColor=#000000;fontColor=#000000;" parent="1" vertex="1">
          <mxGeometry x="150" y="393.25" width="10" height="13" as="geometry" />
        </mxCell>
        <mxCell id="C0HfOCWLTKzBKKs8LI0R-25" value="" style="endArrow=classic;html=1;rounded=0;entryX=0;entryY=0.5;entryDx=0;entryDy=0;strokeColor=#000000;fontColor=#000000;" parent="1" edge="1">
          <mxGeometry width="50" height="50" relative="1" as="geometry">
            <mxPoint x="190" y="400" as="sourcePoint" />
            <mxPoint x="230" y="399.755" as="targetPoint" />
          </mxGeometry>
        </mxCell>
        <mxCell id="C0HfOCWLTKzBKKs8LI0R-27" value="$$\vec{v}$$" style="edgeLabel;html=1;align=center;verticalAlign=middle;resizable=0;points=[];labelBackgroundColor=none;fontColor=#000000;" parent="C0HfOCWLTKzBKKs8LI0R-25" vertex="1" connectable="0">
          <mxGeometry x="-0.1984" relative="1" as="geometry">
            <mxPoint x="4" y="-10" as="offset" />
          </mxGeometry>
        </mxCell>
        <mxCell id="C0HfOCWLTKzBKKs8LI0R-26" value="" style="endArrow=none;html=1;rounded=0;strokeWidth=2;strokeColor=#000000;fontColor=#000000;" parent="1" edge="1">
          <mxGeometry width="50" height="50" relative="1" as="geometry">
            <mxPoint x="190" y="430" as="sourcePoint" />
            <mxPoint x="190" y="370" as="targetPoint" />
          </mxGeometry>
        </mxCell>
        <mxCell id="C0HfOCWLTKzBKKs8LI0R-37" value="z" style="endArrow=classic;html=1;rounded=0;exitX=1;exitY=0.75;exitDx=0;exitDy=0;labelBackgroundColor=none;verticalAlign=bottom;strokeColor=#000000;fontColor=#000000;" parent="1" source="C0HfOCWLTKzBKKs8LI0R-1" edge="1">
          <mxGeometry x="0.2727" width="50" height="50" relative="1" as="geometry">
            <mxPoint x="150" y="428.75" as="sourcePoint" />
            <mxPoint x="190" y="427" as="targetPoint" />
            <mxPoint as="offset" />
          </mxGeometry>
        </mxCell>
        <mxCell id="C0HfOCWLTKzBKKs8LI0R-39" value="$$\vec{v}_r$$" style="edgeStyle=orthogonalEdgeStyle;rounded=0;orthogonalLoop=1;jettySize=auto;html=1;labelBackgroundColor=none;verticalAlign=middle;strokeColor=#000000;fontColor=#000000;" parent="1" source="C0HfOCWLTKzBKKs8LI0R-38" target="C0HfOCWLTKzBKKs8LI0R-15" edge="1">
          <mxGeometry y="10" relative="1" as="geometry">
            <mxPoint as="offset" />
          </mxGeometry>
        </mxCell>
        <mxCell id="C0HfOCWLTKzBKKs8LI0R-38" value="Rotation" style="rounded=1;whiteSpace=wrap;html=1;verticalAlign=middle;horizontal=1;fillColor=#EA6B66;strokeColor=#000000;fontColor=#000000;" parent="1" vertex="1">
          <mxGeometry x="220" y="382.5" width="70" height="34.5" as="geometry" />
        </mxCell>
        <mxCell id="C0HfOCWLTKzBKKs8LI0R-44" value="X" style="text;html=1;align=center;verticalAlign=middle;resizable=0;points=[];autosize=1;strokeColor=none;fillColor=none;fontColor=#000000;" parent="1" vertex="1">
          <mxGeometry x="70" y="580" width="30" height="30" as="geometry" />
        </mxCell>
        <mxCell id="C0HfOCWLTKzBKKs8LI0R-45" value="Z" style="text;html=1;align=center;verticalAlign=middle;resizable=0;points=[];autosize=1;strokeColor=none;fillColor=none;fontColor=#000000;" parent="1" vertex="1">
          <mxGeometry x="70" y="562" width="30" height="30" as="geometry" />
        </mxCell>
        <mxCell id="C0HfOCWLTKzBKKs8LI0R-47" value="Frequency[Hz]" style="endArrow=classic;html=1;rounded=0;entryX=0;entryY=0.25;entryDx=0;entryDy=0;verticalAlign=bottom;labelBackgroundColor=none;strokeColor=#000000;fontColor=#000000;" parent="1" target="C0HfOCWLTKzBKKs8LI0R-1" edge="1">
          <mxGeometry x="-0.3335" y="2" width="50" height="50" relative="1" as="geometry">
            <mxPoint x="-90" y="372" as="sourcePoint" />
            <mxPoint x="170" y="450" as="targetPoint" />
            <mxPoint as="offset" />
          </mxGeometry>
        </mxCell>
        <mxCell id="C0HfOCWLTKzBKKs8LI0R-48" value="Duty Cycle(%)" style="endArrow=classic;html=1;rounded=0;entryX=0;entryY=0.5;entryDx=0;entryDy=0;labelBackgroundColor=none;strokeColor=#000000;fontColor=#000000;" parent="1" target="C0HfOCWLTKzBKKs8LI0R-1" edge="1">
          <mxGeometry x="-0.3327" y="10" width="50" height="50" relative="1" as="geometry">
            <mxPoint x="-90" y="400" as="sourcePoint" />
            <mxPoint y="382" as="targetPoint" />
            <mxPoint as="offset" />
          </mxGeometry>
        </mxCell>
        <mxCell id="C0HfOCWLTKzBKKs8LI0R-49" value="&lt;font&gt;Swing Initiation&amp;nbsp;&lt;br&gt;Signal&lt;br&gt;&lt;/font&gt;" style="endArrow=classic;html=1;rounded=0;entryX=0;entryY=0.75;entryDx=0;entryDy=0;labelBackgroundColor=none;strokeColor=#000000;fontColor=#FF0000;" parent="1" target="C0HfOCWLTKzBKKs8LI0R-1" edge="1">
          <mxGeometry x="-0.4223" y="1" width="50" height="50" relative="1" as="geometry">
            <mxPoint x="-90" y="427" as="sourcePoint" />
            <mxPoint x="-10" y="429.43" as="targetPoint" />
            <mxPoint as="offset" />
          </mxGeometry>
        </mxCell>
        <mxCell id="C0HfOCWLTKzBKKs8LI0R-54" value="Rotation(Deg.)" style="endArrow=classic;html=1;rounded=0;entryX=0.5;entryY=0;entryDx=0;entryDy=0;verticalAlign=bottom;labelBackgroundColor=none;strokeColor=#000000;fontColor=#000000;" parent="1" target="C0HfOCWLTKzBKKs8LI0R-38" edge="1">
          <mxGeometry x="-0.8491" width="50" height="50" relative="1" as="geometry">
            <mxPoint x="-86" y="330" as="sourcePoint" />
            <mxPoint x="240" y="340" as="targetPoint" />
            <mxPoint as="offset" />
            <Array as="points">
              <mxPoint x="160" y="330" />
              <mxPoint x="255" y="330" />
            </Array>
          </mxGeometry>
        </mxCell>
        <mxCell id="C0HfOCWLTKzBKKs8LI0R-56" value="offsets" style="rounded=0;whiteSpace=wrap;html=1;strokeColor=#000000;fillColor=#CCCCCC;fontColor=#000000;" parent="1" vertex="1">
          <mxGeometry x="320" y="337" width="38" height="11.75" as="geometry" />
        </mxCell>
        <mxCell id="C0HfOCWLTKzBKKs8LI0R-59" value="" style="endArrow=classic;html=1;rounded=0;entryX=0.5;entryY=0;entryDx=0;entryDy=0;exitX=1;exitY=0.5;exitDx=0;exitDy=0;strokeColor=#000000;fontColor=#000000;" parent="1" source="C0HfOCWLTKzBKKs8LI0R-56" target="C0HfOCWLTKzBKKs8LI0R-15" edge="1">
          <mxGeometry width="50" height="50" relative="1" as="geometry">
            <mxPoint x="287" y="372" as="sourcePoint" />
            <mxPoint x="337" y="322" as="targetPoint" />
            <Array as="points">
              <mxPoint x="365" y="343" />
            </Array>
          </mxGeometry>
        </mxCell>
        <mxCell id="jEoDmrueGU1iYw3OgaAT-3" value="" style="edgeStyle=orthogonalEdgeStyle;rounded=0;orthogonalLoop=1;jettySize=auto;html=1;entryX=0.001;entryY=0.617;entryDx=0;entryDy=0;fontColor=#000000;dashed=1;strokeColor=#000000;entryPerimeter=0;" parent="1" source="C0HfOCWLTKzBKKs8LI0R-1" target="jEoDmrueGU1iYw3OgaAT-2" edge="1">
          <mxGeometry relative="1" as="geometry">
            <mxPoint x="68" y="455" as="sourcePoint" />
            <mxPoint x="102" y="559.94" as="targetPoint" />
            <Array as="points" />
          </mxGeometry>
        </mxCell>
        <mxCell id="jEoDmrueGU1iYw3OgaAT-6" value="PID" style="rounded=1;whiteSpace=wrap;html=1;fillColor=#97D077;strokeColor=#000000;fontColor=#000000;" parent="1" vertex="1">
          <mxGeometry x="574" y="352.87" width="56" height="23.25" as="geometry" />
        </mxCell>
        <mxCell id="jEoDmrueGU1iYw3OgaAT-7" value="PID" style="rounded=1;whiteSpace=wrap;html=1;fillColor=#97D077;strokeColor=#000000;fontColor=#000000;" parent="1" vertex="1">
          <mxGeometry x="574" y="388.13" width="56" height="23.25" as="geometry" />
        </mxCell>
        <mxCell id="jEoDmrueGU1iYw3OgaAT-8" value="PID" style="rounded=1;whiteSpace=wrap;html=1;fillColor=#97D077;strokeColor=#000000;fontColor=#000000;" parent="1" vertex="1">
          <mxGeometry x="574" y="423.37" width="56" height="23.25" as="geometry" />
        </mxCell>
        <mxCell id="jEoDmrueGU1iYw3OgaAT-9" value="" style="edgeStyle=orthogonalEdgeStyle;rounded=0;orthogonalLoop=1;jettySize=auto;html=1;labelBackgroundColor=none;verticalAlign=middle;strokeColor=#000000;exitX=0.5;exitY=0;exitDx=0;exitDy=0;endArrow=none;endFill=0;fontColor=#000000;" parent="1" source="jEoDmrueGU1iYw3OgaAT-8" edge="1">
          <mxGeometry x="1" y="-398" relative="1" as="geometry">
            <mxPoint x="-38" y="-169" as="offset" />
            <mxPoint x="604" y="428" as="sourcePoint" />
            <mxPoint x="602" y="412" as="targetPoint" />
          </mxGeometry>
        </mxCell>
        <mxCell id="jEoDmrueGU1iYw3OgaAT-10" value="" style="edgeStyle=orthogonalEdgeStyle;rounded=0;orthogonalLoop=1;jettySize=auto;html=1;labelBackgroundColor=none;verticalAlign=middle;strokeColor=#000000;endArrow=none;endFill=0;entryX=0.5;entryY=1;entryDx=0;entryDy=0;fontColor=#000000;" parent="1" target="jEoDmrueGU1iYw3OgaAT-6" edge="1">
          <mxGeometry x="1" y="-183" relative="1" as="geometry">
            <mxPoint x="177" y="-169" as="offset" />
            <mxPoint x="602" y="388" as="sourcePoint" />
            <mxPoint x="601.95" y="377.13" as="targetPoint" />
          </mxGeometry>
        </mxCell>
        <mxCell id="jEoDmrueGU1iYw3OgaAT-11" value="" style="edgeStyle=orthogonalEdgeStyle;rounded=0;orthogonalLoop=1;jettySize=auto;html=1;strokeColor=#000000;entryX=0.5;entryY=1;entryDx=0;entryDy=0;fontColor=#000000;" parent="1" target="jEoDmrueGU1iYw3OgaAT-8" edge="1">
          <mxGeometry relative="1" as="geometry">
            <mxPoint x="602" y="708" as="sourcePoint" />
            <mxPoint x="626" y="478" as="targetPoint" />
          </mxGeometry>
        </mxCell>
        <mxCell id="jEoDmrueGU1iYw3OgaAT-12" value="Joint Positions" style="edgeLabel;html=1;align=center;verticalAlign=middle;resizable=0;points=[];labelBackgroundColor=none;fontColor=#000000;" parent="jEoDmrueGU1iYw3OgaAT-11" vertex="1" connectable="0">
          <mxGeometry x="0.0143" y="-1" relative="1" as="geometry">
            <mxPoint x="-43" y="90" as="offset" />
          </mxGeometry>
        </mxCell>
        <mxCell id="jEoDmrueGU1iYw3OgaAT-14" value="$$T_\beta$$" style="endArrow=classic;html=1;rounded=0;exitX=1;exitY=0.5;exitDx=0;exitDy=0;labelBackgroundColor=none;strokeColor=#000000;fontColor=#000000;" parent="1" edge="1">
          <mxGeometry x="0.5517" y="13" width="50" height="50" relative="1" as="geometry">
            <mxPoint x="630" y="399.46" as="sourcePoint" />
            <mxPoint x="674" y="399" as="targetPoint" />
            <mxPoint as="offset" />
          </mxGeometry>
        </mxCell>
        <mxCell id="jEoDmrueGU1iYw3OgaAT-15" value="$$T_\gamma$$" style="endArrow=classic;html=1;rounded=0;exitX=1;exitY=0.5;exitDx=0;exitDy=0;labelBackgroundColor=none;strokeColor=#000000;fontColor=#000000;" parent="1" edge="1">
          <mxGeometry x="0.5516" y="13" width="50" height="50" relative="1" as="geometry">
            <mxPoint x="630" y="435.21999999999997" as="sourcePoint" />
            <mxPoint x="674" y="434.76" as="targetPoint" />
            <mxPoint as="offset" />
          </mxGeometry>
        </mxCell>
        <mxCell id="jEoDmrueGU1iYw3OgaAT-16" value="$$T_\alpha$$" style="endArrow=classic;html=1;rounded=0;exitX=1;exitY=0.5;exitDx=0;exitDy=0;labelBackgroundColor=none;strokeColor=#000000;fontColor=#000000;" parent="1" edge="1">
          <mxGeometry x="0.5513" y="12" width="50" height="50" relative="1" as="geometry">
            <mxPoint x="630" y="364.72999999999996" as="sourcePoint" />
            <mxPoint x="674" y="364.27" as="targetPoint" />
            <mxPoint as="offset" />
          </mxGeometry>
        </mxCell>
        <mxCell id="YeceDf9BxAT90pHdiX33-1" value="Leg Control Unit" style="text;html=1;align=center;verticalAlign=middle;resizable=0;points=[];autosize=1;strokeColor=none;fillColor=none;fontColor=#000000;fontStyle=1" vertex="1" parent="1">
          <mxGeometry x="229" y="244" width="114" height="28" as="geometry" />
        </mxCell>
      </root>
    </mxGraphModel>
  </diagram>
</mxfile>
